<svg width="97" height="24" viewBox="0 0 97 24" fill="none" xmlns="http://www.w3.org/2000/svg">
<path d="M17.0749 11.4146V23.5716H11.207V12.7556C11.207 12.2844 11.1468 11.8658 11.029 11.5023C10.9112 11.1364 10.7232 10.8356 10.4625 10.6C10.2018 10.3643 9.87348 10.1889 9.47242 10.0686C9.07137 9.95075 8.58759 9.89059 8.02361 9.89059C7.52981 9.89059 7.08614 9.95576 6.69762 10.0861C6.3091 10.2164 6.03087 10.3518 5.86794 10.4922V23.5691H0V7.17344C0.423614 6.93782 1.01266 6.7022 1.76715 6.46658C2.52163 6.23096 3.35633 6.01289 4.27625 5.81236C5.19617 5.61183 6.12612 5.4464 7.0686 5.31856C8.01108 5.18822 8.87084 5.12305 9.64788 5.12305C11.227 5.12305 12.5681 5.31104 13.676 5.68954C14.7839 6.06804 15.6261 6.71474 16.2026 7.63466C16.7867 8.55207 17.0749 9.81289 17.0749 11.4146ZM11.207 8.48189C11.9364 7.82265 12.8513 7.24613 13.9467 6.74983C15.0421 6.25603 16.1901 5.85999 17.3933 5.56672C18.5939 5.27344 19.7144 5.12556 20.7496 5.12556C22.3287 5.12556 23.6723 5.31355 24.7777 5.69204C25.8856 6.07054 26.7278 6.71724 27.3043 7.63716C27.8808 8.55708 28.1691 9.8179 28.1691 11.4196V23.5766H22.3012V12.7606C22.3012 12.2894 22.241 11.8708 22.1232 11.5073C22.0054 11.1414 21.8174 10.8406 21.5567 10.605C21.296 10.3694 20.9677 10.1939 20.5666 10.0736C20.1656 9.95576 19.6843 9.8956 19.1178 9.8956C18.624 9.8956 18.1803 9.96579 17.7918 10.1087C17.4033 10.249 17.1251 10.4145 16.9621 10.6025L11.207 8.48189Z" fill="#E5414C"/>
<path d="M31.9189 23.5745V0H48.3521V4.87783H38.3508V9.33205H46.9735V14.2099H38.3157V18.6992H48.3521V23.577H31.9189V23.5745Z" fill="#0B2E4E"/>
<path d="M52.0645 23.5745V0H63.9407C66.6729 0 68.8286 0.631664 70.4077 1.88997C71.9869 3.15079 72.7765 5.0533 72.7765 7.59749C72.7765 8.56504 72.5809 9.54261 72.1924 10.5302C71.8039 11.5203 71.2148 12.3851 70.4253 13.1295C69.6357 13.8715 68.6406 14.3728 67.4399 14.631L66.733 12.4753L74.0498 23.572H65.8507L60.1608 13.4278L62.9531 15.7615H58.4638V23.572H52.0645V23.5745ZM58.4613 11.1694H63.0208C63.8204 11.1694 64.4921 10.9212 65.0361 10.4274C65.5775 9.93363 65.8482 9.09643 65.8482 7.91833C65.8482 6.88311 65.5951 6.11609 65.0887 5.62229C64.5824 5.12849 63.9407 4.88034 63.1637 4.88034H58.4638V11.1694H58.4613Z" fill="#0B2E4E"/>
<path d="M83.2367 16.1174V23.5745H76.8398V0H87.9365C90.6938 0 92.8795 0.624142 94.4938 1.87243C96.108 3.12071 96.9152 5.08839 96.9152 7.77546C96.9152 10.4375 96.108 12.4929 94.4938 13.9442C92.8795 15.393 90.6938 16.1174 87.9365 16.1174H83.2367ZM83.2367 11.2396H87.1244C87.5706 11.2396 87.9792 11.1744 88.3426 11.0441C88.7086 10.9137 89.0069 10.7157 89.245 10.4425C89.4806 10.1718 89.6636 9.84841 89.7939 9.46992C89.9243 9.09393 89.9894 8.66781 89.9894 8.19657C89.9894 7.65514 89.9243 7.1839 89.7939 6.78285C89.6636 6.38179 89.4806 6.03588 89.245 5.7401C89.0094 5.44683 88.7086 5.22876 88.3426 5.08588C87.9766 4.94551 87.5706 4.87282 87.1244 4.87282H83.2367V11.2396Z" fill="#0B2E4E"/>
</svg>
