<svg width="23" height="11" viewBox="0 0 23 11" fill="none" xmlns="http://www.w3.org/2000/svg">
<path d="M7.81518 5.22437V10.7886H5.12943V5.83815C5.12943 5.62247 5.1019 5.43088 5.04797 5.26452C4.99405 5.09702 4.90801 4.95935 4.78869 4.8515C4.66937 4.74366 4.51908 4.66335 4.33552 4.60828C4.15196 4.55436 3.93054 4.52683 3.6724 4.52683C3.44639 4.52683 3.24332 4.55666 3.0655 4.61631C2.88767 4.67597 2.76032 4.73792 2.68575 4.80217V10.7875H0V3.28319C0.193888 3.17535 0.463496 3.0675 0.808823 2.95966C1.15415 2.85182 1.53619 2.75201 1.95724 2.66022C2.37828 2.56844 2.80392 2.49272 3.23529 2.43421C3.66667 2.37456 4.06018 2.34473 4.41583 2.34473C5.13861 2.34473 5.7524 2.43077 6.25949 2.60401C6.76658 2.77725 7.15206 3.07324 7.41593 3.49429C7.68325 3.91419 7.81518 4.49126 7.81518 5.22437ZM5.12943 3.88206C5.46328 3.58033 5.88204 3.31646 6.38339 3.0893C6.88475 2.86329 7.4102 2.68202 7.96089 2.54779C8.51043 2.41356 9.02325 2.34587 9.49707 2.34587C10.2199 2.34587 10.8348 2.43192 11.3407 2.60516C11.8478 2.77839 12.2333 3.07439 12.4972 3.49543C12.761 3.91648 12.893 4.49356 12.893 5.22666V10.7909H10.2072V5.84045C10.2072 5.62476 10.1797 5.43317 10.1258 5.26681C10.0719 5.09931 9.98581 4.96164 9.86649 4.8538C9.74718 4.74596 9.59689 4.66565 9.41333 4.61058C9.22976 4.55666 9.00949 4.52912 8.75021 4.52912C8.52419 4.52912 8.32113 4.56125 8.1433 4.62664C7.96547 4.69089 7.83813 4.76661 7.76356 4.85265L5.12943 3.88206Z" fill="#E5414C"/>
<path d="M14.6093 10.79V0H22.1307V2.23258H17.5531V4.27128H21.4997V6.50386H17.5371V8.55861H22.1307V10.7912H14.6093V10.79Z" fill="#0B2E4E"/>
</svg>
