<svg width="88" height="117" viewBox="0 0 88 117" fill="none" xmlns="http://www.w3.org/2000/svg">
<path d="M54.7493 85.3701H32.3193V93.6301H54.7493V85.3701Z" fill="#6DB9CA"/>
<path d="M52.5398 75.6802H34.3198C34.3198 75.6802 34.7798 87.1802 32.5498 90.5202H54.5498C52.3098 87.1802 52.5398 75.6802 52.5398 75.6802Z" fill="#F4B88E"/>
<g style="mix-blend-mode:multiply">
<path d="M34.0889 84.3701C37.0125 86.041 40.3215 86.92 43.6889 86.9202C46.9001 86.8837 50.0681 86.1751 52.9889 84.8401C52.6463 81.7993 52.496 78.7399 52.5389 75.6802H34.3189C34.4143 78.5788 34.3375 81.4806 34.0889 84.3701Z" fill="#F5DCD6"/>
</g>
<path d="M78.7489 98.5L52.2989 89.02H34.7589L8.31891 98.5C8.31891 98.5 -0.951089 101.5 0.138911 116.32H86.9289C88.1889 100.63 78.7489 98.5 78.7489 98.5Z" fill="#F4B88E"/>
<path d="M78.7491 98.4999L57.1291 90.7899L43.5491 100.27L30.2691 90.6699L8.26911 98.5399C8.26911 98.5399 -1.00089 101.54 0.0891067 116.36H86.8791C88.1891 100.63 78.7491 98.4999 78.7491 98.4999Z" fill="#EAF6F5"/>
<path d="M30.2691 90.6299L8.26911 98.4999C8.26911 98.4999 -1.00089 101.5 0.0891067 116.32H35.0891L30.2691 90.6299Z" fill="#001D51"/>
<path d="M78.7489 98.5L57.1289 90.79L52.6689 116.36H86.9289C88.1889 100.63 78.7489 98.5 78.7489 98.5Z" fill="#001D51"/>
<path d="M63.4989 53.0701C62.8689 56.9501 63.9589 60.4002 65.9289 60.7702C67.8989 61.1402 69.9989 58.3002 70.6289 54.4202C71.2589 50.5402 70.1589 47.0801 68.1889 46.7101C66.2189 46.3401 64.1189 49.1801 63.4989 53.0701Z" fill="#F4B88E"/>
<path d="M65.8698 52.0199C65.8698 52.0199 65.8698 51.7999 65.9798 51.4499C66.0846 50.9674 66.2422 50.4979 66.4498 50.0499C66.6998 49.5299 67.0898 48.9299 67.5898 48.8999C67.7191 48.8951 67.8482 48.9155 67.9698 48.9599C68.0384 48.9852 68.1052 49.0153 68.1698 49.0499C68.1698 49.0999 68.2498 49.1099 68.3098 49.1699C68.5307 49.4126 68.6917 49.7037 68.7798 50.0199C68.8985 50.3764 68.9757 50.7456 69.0098 51.1199C69.0546 51.4885 69.0546 51.8612 69.0098 52.2299C68.9498 52.6199 68.9398 53.0199 68.8598 53.3599C68.7798 53.6999 68.7298 54.0299 68.6798 54.3599C68.6298 54.6899 68.5398 54.9499 68.4798 55.1999C68.4198 55.4499 68.3498 55.6599 68.2998 55.8399C68.1998 56.1999 68.1498 56.3998 68.1498 56.3998C68.1498 56.3998 68.2498 56.2298 68.4198 55.8998C68.4898 55.7398 68.6098 55.5499 68.6998 55.3099L69.0298 54.4999C69.1398 54.1999 69.2298 53.8499 69.3398 53.4999C69.4395 53.1283 69.5163 52.7509 69.5698 52.3699C69.629 51.9285 69.629 51.4812 69.5698 51.0399C69.5398 50.5914 69.4559 50.1482 69.3198 49.7199C69.1892 49.2931 68.9557 48.905 68.6398 48.5899C68.5516 48.5088 68.4543 48.4383 68.3498 48.3799L68.0798 48.2699C67.8851 48.2297 67.6844 48.2297 67.4898 48.2699C67.2852 48.3082 67.0908 48.3884 66.9187 48.5054C66.7466 48.6224 66.6006 48.7737 66.4898 48.9499C66.2862 49.2577 66.1311 49.595 66.0298 49.9499C65.8726 50.456 65.7818 50.9804 65.7598 51.5099C65.785 51.6821 65.8218 51.8525 65.8698 52.0199Z" fill="#F2A57F"/>
<path d="M65.8693 52.0203C65.8693 52.0203 65.6893 51.6003 66.9793 51.5103C66.9793 51.5103 68.4293 51.7703 67.5793 53.7103C67.3884 54.1264 67.2442 54.5624 67.1493 55.0103C67.0193 55.6603 67.2493 56.5403 66.8993 57.1103C66.4493 57.8603 65.3093 57.4303 65.2393 56.5803C65.3591 55.7712 65.6787 55.0047 66.1693 54.3503C66.4217 53.9954 66.531 53.5584 66.4754 53.1265C66.4198 52.6946 66.2033 52.2996 65.8693 52.0203Z" fill="#F2A57F"/>
<path d="M65.2392 56.5L65.1392 56.6C65.0576 56.713 64.9935 56.8378 64.9492 56.97C64.9176 57.057 64.8975 57.1478 64.8892 57.24C64.869 57.3457 64.869 57.4543 64.8892 57.56C64.8892 57.67 64.8892 57.79 64.8892 57.91C64.9168 58.0196 64.9536 58.1266 64.9992 58.23C65.0379 58.3336 65.0847 58.4339 65.1392 58.53C65.1992 58.61 65.2792 58.68 65.3392 58.75C65.4355 58.883 65.5724 58.9813 65.7292 59.03C65.8655 59.0999 66.0161 59.1375 66.1692 59.14C66.1167 58.9777 66.0498 58.8204 65.9692 58.67C65.94 58.6058 65.9031 58.5453 65.8592 58.49C65.8353 58.4176 65.8052 58.3473 65.7692 58.28C65.7427 58.2052 65.7056 58.1345 65.6592 58.07C65.6282 58.0017 65.6015 57.9316 65.5792 57.86C65.5112 57.7226 65.4576 57.5785 65.4192 57.43C65.4192 57.36 65.4192 57.29 65.4192 57.22C65.4192 57.15 65.4192 57.07 65.4192 57.01C65.2692 56.79 65.2392 56.5 65.2392 56.5Z" fill="#F2A57F"/>
<path d="M23.8789 53.0701C24.5089 56.9501 23.4189 60.4002 21.4489 60.7702C19.4789 61.1402 17.3789 58.3002 16.7489 54.4202C16.1189 50.5402 17.2189 47.0801 19.1889 46.7101C21.1589 46.3401 23.2589 49.1801 23.8789 53.0701Z" fill="#F4B88E"/>
<path d="M21.5091 52.0199C21.4873 51.828 21.4539 51.6377 21.4091 51.4499C21.3001 50.9672 21.1392 50.4978 20.9291 50.0499C20.6891 49.5299 20.2891 48.9299 19.7891 48.8999C19.6597 48.8951 19.5307 48.9155 19.4091 48.9599C19.3438 48.9855 19.2803 49.0156 19.2191 49.0499C19.17 49.0869 19.1232 49.127 19.0791 49.1699C18.8513 49.4092 18.6864 49.7012 18.5991 50.0199C18.4803 50.3764 18.4031 50.7456 18.3691 51.1199C18.3292 51.4888 18.3292 51.8609 18.3691 52.2299C18.4291 52.6199 18.4491 53.0199 18.5191 53.3599C18.5891 53.6999 18.6491 54.0299 18.7091 54.3599C18.7691 54.6899 18.8491 54.9499 18.8991 55.1999C18.9491 55.4499 19.0291 55.6599 19.0791 55.8399C19.1791 56.1999 19.2291 56.3998 19.2291 56.3998C19.2291 56.3998 19.1291 56.2298 18.9591 55.8998C18.8891 55.7398 18.7791 55.5499 18.6791 55.3099L18.3491 54.4999C18.2491 54.1999 18.1491 53.8499 18.0391 53.4999C17.9291 53.1499 17.8891 52.7699 17.8091 52.3699C17.7498 51.9285 17.7498 51.4812 17.8091 51.0399C17.8439 50.592 17.9277 50.1494 18.0591 49.7199C18.1893 49.2907 18.4268 48.9018 18.7491 48.5899C18.8317 48.5067 18.926 48.4359 19.0291 48.3799L19.2991 48.2699C19.4937 48.2297 19.6944 48.2297 19.8891 48.2699C20.0936 48.3082 20.288 48.3884 20.4601 48.5054C20.6322 48.6224 20.7782 48.7737 20.8891 48.9499C21.0926 49.2577 21.2478 49.595 21.3491 49.9499C21.5111 50.4548 21.6019 50.9799 21.6191 51.5099C21.5938 51.6821 21.557 51.8525 21.5091 52.0199Z" fill="#F2A57F"/>
<path d="M21.5094 52.0203C21.5094 52.0203 21.6994 51.6003 20.3994 51.5103C20.3994 51.5103 18.9494 51.7703 19.7994 53.7103C19.9936 54.126 20.1411 54.562 20.2394 55.0103C20.3694 55.6603 20.1294 56.5403 20.4794 57.1103C20.9294 57.8603 22.0694 57.4303 22.1394 56.5803C22.0193 55.773 21.7035 55.0074 21.2194 54.3503C20.9658 53.9966 20.8548 53.5603 20.9086 53.1285C20.9623 52.6967 21.1769 52.301 21.5094 52.0203Z" fill="#F2A57F"/>
<path d="M22.1397 56.5L22.2397 56.6C22.3214 56.713 22.3854 56.8378 22.4297 56.97C22.4647 57.0566 22.4883 57.1474 22.4997 57.24C22.5149 57.3461 22.5149 57.4539 22.4997 57.56C22.4997 57.67 22.4997 57.79 22.4997 57.91C22.4722 58.0196 22.4354 58.1266 22.3897 58.23C22.3553 58.3353 22.3083 58.436 22.2497 58.53C22.1897 58.61 22.1197 58.68 22.0597 58.75C21.9579 58.8818 21.8184 58.9794 21.6597 59.03C21.5234 59.0999 21.3729 59.1375 21.2197 59.14C21.2722 58.9777 21.3392 58.8204 21.4197 58.67C21.4527 58.6078 21.4895 58.5477 21.5297 58.49C21.5536 58.4176 21.5838 58.3473 21.6197 58.28C21.6503 58.207 21.6871 58.1367 21.7297 58.07C21.7607 58.0017 21.7875 57.9316 21.8097 57.86C21.8777 57.7226 21.9313 57.5785 21.9697 57.43C21.979 57.3603 21.979 57.2897 21.9697 57.22C21.9939 57.152 22.0107 57.0816 22.0197 57.01C22.1097 56.79 22.1397 56.5 22.1397 56.5Z" fill="#F2A57F"/>
<path d="M43.9297 11.1602H43.3097C27.6497 11.3002 18.8597 15.7602 21.3097 44.3002L23.9997 67.0302C24.274 68.4428 24.8669 69.7742 25.7333 70.9231C26.5998 72.072 27.7169 73.0081 28.9997 73.6602L37.5097 79.9702C37.5097 79.9702 41.5097 81.7602 43.6497 81.5802C45.7397 81.7602 49.7797 79.9602 49.7797 79.9602L58.2797 73.6602C59.5625 73.0081 60.6796 72.072 61.546 70.9231C62.4125 69.7742 63.0054 68.4428 63.2797 67.0302L66.1297 44.7902C68.5297 16.2802 59.5797 11.3002 43.9297 11.1602Z" fill="#F4B88E"/>
<path d="M62.3393 53.0701C61.7793 55.4901 61.3993 59.3601 59.8193 61.4301C59.2856 62.1411 58.5985 62.7225 57.8089 63.1311C57.0194 63.5397 56.1479 63.765 55.2593 63.7901C54.0035 63.8437 52.7456 63.7565 51.5093 63.5301C50.5751 63.2315 49.6188 63.0075 48.6493 62.8601C47.6508 62.8692 46.6771 63.1717 45.8493 63.7301C45.3106 64.0133 44.7168 64.1761 44.1091 64.2072C43.5013 64.2383 42.894 64.1369 42.3293 63.9101C40.5942 63.1928 38.7454 62.7898 36.8693 62.7201C34.7093 62.7901 32.2293 63.3701 30.1193 62.7201C28.0093 62.0701 26.6793 60.0601 25.7893 57.9801C25.3193 56.8701 24.9793 54.2301 24.6393 53.0801C24.2193 51.6401 23.5493 52.6301 22.2393 52.6101L23.9493 67.0401C24.2235 68.4527 24.8165 69.7841 25.6829 70.933C26.5493 72.0819 27.6665 73.018 28.9493 73.6701L37.4593 79.9801C37.4593 79.9801 41.4593 81.7701 43.5993 81.5901C45.6893 81.7701 49.7293 79.9701 49.7293 79.9701L58.2293 73.6701C59.5121 73.018 60.6292 72.0819 61.4956 70.933C62.3621 69.7841 62.955 68.4527 63.2293 67.0401L65.1093 52.3301C63.6893 52.2901 62.7193 51.3801 62.3393 53.0701Z" fill="#E08D61"/>
<path d="M32.089 46.1698C32.089 47.6498 32.929 48.8498 33.949 48.8398C34.969 48.8298 35.779 47.6298 35.769 46.1398C35.759 44.6498 34.929 43.4598 33.919 43.4698C32.909 43.4798 32.079 44.6798 32.089 46.1698Z" fill="#2F1807"/>
<path d="M33.1996 45.3103C33.1996 45.4685 33.1527 45.6232 33.0648 45.7547C32.9769 45.8863 32.8519 45.9888 32.7058 46.0494C32.5596 46.1099 32.3987 46.1257 32.2435 46.0949C32.0884 46.064 31.9458 45.9878 31.8339 45.8759C31.722 45.764 31.6458 45.6215 31.615 45.4663C31.5841 45.3111 31.6 45.1503 31.6605 45.0041C31.7211 44.8579 31.8236 44.733 31.9552 44.6451C32.0867 44.5572 32.2414 44.5103 32.3996 44.5103C32.5047 44.5103 32.6087 44.5309 32.7058 44.5712C32.8028 44.6114 32.891 44.6703 32.9653 44.7446C33.0396 44.8189 33.0985 44.907 33.1387 45.0041C33.1789 45.1012 33.1996 45.2052 33.1996 45.3103Z" fill="white"/>
<path d="M55.2995 46.1698C55.2995 47.6498 54.4495 48.8498 53.4395 48.8398C52.4295 48.8298 51.5995 47.6298 51.6095 46.1398C51.6195 44.6498 52.4495 43.4598 53.4695 43.4698C54.4895 43.4798 55.2995 44.6798 55.2995 46.1698Z" fill="#2F1807"/>
<path d="M54.1797 45.3103C54.1797 45.4685 54.2266 45.6232 54.3145 45.7547C54.4024 45.8863 54.5274 45.9888 54.6735 46.0494C54.8197 46.1099 54.9806 46.1257 55.1358 46.0949C55.2909 46.064 55.4335 45.9878 55.5454 45.8759C55.6573 45.764 55.7334 45.6215 55.7643 45.4663C55.7952 45.3111 55.7793 45.1503 55.7188 45.0041C55.6582 44.8579 55.5557 44.733 55.4241 44.6451C55.2926 44.5572 55.1379 44.5103 54.9797 44.5103C54.8746 44.5103 54.7706 44.5309 54.6735 44.5712C54.5765 44.6114 54.4883 44.6703 54.414 44.7446C54.3397 44.8189 54.2808 44.907 54.2406 45.0041C54.2004 45.1012 54.1797 45.2052 54.1797 45.3103Z" fill="white"/>
<path d="M46.3993 60.61C45.9683 61.0273 45.4673 61.3657 44.9193 61.61C44.3602 61.8675 43.762 62.0297 43.1493 62.0899C42.818 62.1344 42.4835 62.1512 42.1493 62.14C41.8129 62.1191 41.4786 62.0723 41.1493 61.9999C40.8298 61.9369 40.518 61.8397 40.2193 61.71C39.9167 61.5903 39.6227 61.4499 39.3393 61.2899L38.9693 61.0999L38.8893 60.49C38.852 60.2314 38.8287 59.971 38.8193 59.71C38.8193 59.46 38.8193 59.21 38.8193 58.96C38.8451 58.4614 38.9154 57.966 39.0293 57.4799C39.1372 56.9847 39.3051 56.5045 39.5293 56.05C39.7456 55.5595 40.0394 55.1071 40.3993 54.71C40.5958 55.1951 40.7334 55.7021 40.8093 56.2199C40.9074 56.6944 40.9676 57.1759 40.9893 57.6599C40.9893 58.1299 40.9893 58.5899 40.9893 59.0599V59.7499C40.9893 59.9799 40.9893 60.22 40.9193 60.42L40.4693 59.6199C40.6693 59.7399 40.8493 59.9099 41.0593 60.0099C41.2642 60.1357 41.4781 60.246 41.6993 60.3399C41.9197 60.4396 42.1469 60.5232 42.3793 60.5899C42.6195 60.6594 42.8632 60.7161 43.1093 60.7599C43.3608 60.8019 43.6146 60.8286 43.8693 60.8399C44.1358 60.8549 44.4029 60.8549 44.6693 60.8399C45.2512 60.809 45.8296 60.7321 46.3993 60.61Z" fill="#EBA17D"/>
<path d="M37.8196 40.6899C37.7474 41.0101 37.5568 41.2911 37.286 41.4766C37.0152 41.6621 36.6842 41.7383 36.3596 41.6899C33.8654 41.2274 31.293 41.4415 28.9096 42.3099C28.6011 42.401 28.27 42.3773 27.9777 42.2431C27.6853 42.1089 27.4515 41.8732 27.3196 41.5799C27.2411 41.4302 27.1956 41.2653 27.1863 41.0965C27.1771 40.9278 27.2042 40.759 27.2658 40.6015C27.3274 40.4441 27.4222 40.3018 27.5436 40.1842C27.665 40.0666 27.8103 39.9764 27.9696 39.9199C30.7714 38.8839 33.7989 38.6146 36.7396 39.1399C36.9138 39.1674 37.0807 39.2299 37.2302 39.3236C37.3798 39.4172 37.5088 39.5401 37.6097 39.6849C37.7105 39.8296 37.7811 39.9932 37.8172 40.1659C37.8533 40.3386 37.8541 40.5168 37.8196 40.6899Z" fill="#E08D61"/>
<path d="M48.8795 40.6899C48.9516 41.0101 49.1423 41.2911 49.4131 41.4766C49.6839 41.6621 50.0148 41.7383 50.3395 41.6899C52.8336 41.2269 55.4062 41.441 57.7895 42.3099C58.0979 42.4033 58.4299 42.3806 58.7228 42.2461C59.0157 42.1116 59.2493 41.8747 59.3795 41.5799C59.4582 41.4308 59.5041 41.2666 59.514 41.0983C59.524 40.93 59.4977 40.7616 59.4371 40.6043C59.3764 40.447 59.2828 40.3045 59.1625 40.1864C59.0421 40.0684 58.8979 39.9775 58.7395 39.9199C55.9377 38.8839 52.9101 38.6146 49.9695 39.1399C49.7933 39.1661 49.6243 39.228 49.4729 39.3218C49.3214 39.4156 49.1907 39.5392 49.0887 39.6852C48.9867 39.8313 48.9155 39.9965 48.8795 40.171C48.8436 40.3454 48.8435 40.5254 48.8795 40.6999V40.6899Z" fill="#E08D61"/>
<path d="M44.4598 70.6299C43.7355 70.7932 42.984 70.7932 42.2598 70.6299" stroke="#E89780" stroke-linecap="round" stroke-linejoin="round"/>
<path d="M38.3896 66.0698L39.6696 68.5798C39.6696 68.5798 45.3996 71.7998 49.4296 66.1998C45.7501 66.3598 42.0644 66.3164 38.3896 66.0698Z" fill="white"/>
<path d="M66.4695 12.3402C68.3095 4.34019 58.5895 3.14019 58.5895 3.14019C52.6812 3.04177 46.8046 2.25308 41.0795 0.790183C21.2395 -1.99982 18.9595 7.85018 18.9595 7.85018C16.5395 14.9302 16.8195 19.2502 16.8195 19.2502L19.1895 46.7102C19.1895 46.7102 21.1895 46.3802 21.8695 49.4302L22.3595 53.0402H24.6395C24.0595 41.7202 24.0595 32.4702 24.0595 32.4702C24.2395 29.1402 24.0595 24.3102 29.1295 23.7402C31.6395 24.2002 34.2395 24.5602 36.7795 24.7402C41.6575 25.1774 46.5697 25.0533 51.4195 24.3702C54.5695 23.9802 59.9895 22.7602 62.2095 25.7702C63.7595 27.8802 63.7195 31.3302 63.7895 33.8302C63.7895 35.2002 63.6995 36.5402 63.6195 37.9002L62.3395 53.0002H65.0695C65.5095 46.0802 69.0695 47.0802 69.0695 47.0802C71.1295 31.5602 73.3095 21.4502 73.3095 21.4502C73.3095 21.4502 74.0695 12.8902 66.4395 12.2702" fill="#E08D61"/>
<path d="M67.2497 8.56982C67.2497 8.56982 69.4997 10.5698 66.4697 13.0798L69.0297 16.0798C69.0297 16.0798 71.7597 12.1398 73.7497 13.7598C73.7497 13.7598 73.1097 11.4498 70.1797 12.1398C70.1797 12.1798 71.3597 8.83982 67.2497 8.56982Z" fill="#E08D61"/>
<path d="M30.2696 90.6299L35.1196 116.32H29.8396L18.5596 94.8299L30.2696 90.6299Z" fill="#0D316D"/>
<path d="M57.1289 90.75L52.6689 116.32H57.5889L67.3789 94.43L57.1289 90.75Z" fill="#0D316D"/>
<path d="M43.5392 100.19L41.7592 91.0801L32.3192 85.3701L30.9492 91.1101L43.5392 100.19Z" fill="#6DB9CA"/>
<path d="M43.5391 100.19L45.3191 91.0801L54.7491 85.3701L56.1291 91.1101L43.5391 100.19Z" fill="#6DB9CA"/>
<path d="M48.0498 92.3101H39.0498C38.4964 92.6431 38.0779 93.1603 37.8676 93.771C37.6573 94.3817 37.6687 95.0469 37.8998 95.6501L40.7598 100.19H46.3498L49.2098 95.6501C49.4399 95.0458 49.4498 94.3798 49.2377 93.769C49.0255 93.1581 48.6049 92.6416 48.0498 92.3101Z" fill="#EC524F"/>
<g style="mix-blend-mode:multiply">
<path d="M48.659 92.79C48.8446 93.683 48.7823 94.6098 48.479 95.47C48.2177 96.3953 47.7059 97.2304 47.0001 97.8833C46.2943 98.5362 45.4218 98.9815 44.479 99.17C43.6289 99.3743 42.7331 99.2511 41.9697 98.8249C41.2063 98.3987 40.6313 97.7008 40.359 96.87C39.889 95.27 39.619 93.46 40.639 92.27H39.039C38.4856 92.6031 38.0671 93.1203 37.8568 93.731C37.6466 94.3417 37.658 95.0069 37.889 95.61L40.749 100.15H46.339L49.199 95.61C49.404 95.1404 49.4621 94.6197 49.3657 94.1164C49.2693 93.6131 49.023 93.1507 48.659 92.79Z" fill="#EC524F"/>
</g>
<path d="M40.7489 100.19L37.6689 116.32H49.4189L46.3289 100.19H40.7489Z" fill="#EC524F"/>
<path d="M41.7597 91.0801L37.2896 99.2501L26.3896 91.8401L32.3196 85.3701L41.7597 91.0801Z" fill="#BFE5E5"/>
<path d="M45.3193 91.0801L49.7793 99.2501L60.6793 91.8401L54.7493 85.3701L45.3193 91.0801Z" fill="#BFE5E5"/>
</svg>
