<svg width="373" height="304" viewBox="0 0 373 304" fill="none" xmlns="http://www.w3.org/2000/svg">
<g clip-path="url(#clip0_4825_26199)">
<path d="M332.798 273.704C322.311 273.343 302.068 277.323 304.956 285.634C307.853 293.946 315.804 289.614 321.408 287.8C327.013 285.995 344.007 296.843 350.513 290.508C357.02 284.182 345.089 274.417 330.993 274.958" fill="#EDEFF4"/>
<path d="M243.85 278.045C243.85 278.045 223.959 276.962 224.149 279.85C224.329 282.747 234.816 286.356 243.85 288.531C252.893 290.697 255.059 296.121 272.774 295.399C290.49 294.677 282.359 273.704 282.359 273.704C282.359 273.704 275.31 272.621 266.267 276.781C257.225 280.942 245.113 280.942 241.142 274.976L243.85 278.045Z" fill="#EDEFF4"/>
<path d="M158.34 24.042C141.165 20.6848 114.046 20.6036 118.206 27.661C122.367 34.7093 149.847 56.0439 162.139 50.4395C174.431 44.8351 174.972 27.3 158.34 24.042Z" fill="#EDEFF4"/>
<path opacity="0.75" d="M300.796 199.764C270.066 224.798 159.964 248.218 91.6284 200.486C23.2927 152.763 24.9172 88.7588 23.6537 79.5445C22.3902 70.3211 25.2782 23.5005 70.8353 24.042C116.392 24.5835 131.112 93.4246 180.757 58.7514C228.119 25.6665 242.225 29.4659 258.497 47.9036C264.3 54.4736 273.884 63.5616 285.797 64.3557C301.346 65.3846 313.819 63.6338 330.993 58.7514C353.564 52.3347 426.629 97.2601 300.796 199.764Z" fill="#EDEFF4"/>
<path d="M243.777 277.945C243.723 278.541 243.615 279.11 243.425 279.615C243.425 279.615 231.576 279.958 227.316 279.615C223.056 279.272 225.358 274.895 226.973 273.975C227.163 273.866 227.379 273.794 227.614 273.749C229.374 273.424 232.225 274.724 233.651 274.317C235.267 273.857 238.371 271.782 238.371 271.782L243.118 272.26C243.109 272.269 244.003 275.319 243.777 277.945Z" fill="#24246B"/>
<path d="M243.777 277.945C243.723 278.541 243.615 279.11 243.425 279.615C243.425 279.615 231.576 279.958 227.316 279.615C223.056 279.272 225.358 274.895 226.973 273.975C227.163 273.866 227.379 273.794 227.614 273.749C228.543 273.993 229.581 275.175 230.43 278.46C230.421 278.469 239.346 278.767 243.777 277.945Z" fill="#EBF0F2"/>
<path d="M279.615 281.907C279.615 281.907 272.133 282.025 271.095 281.907C270.247 281.817 270.942 279.489 271.853 277.954C272.052 277.612 272.268 277.305 272.476 277.079C273.631 275.816 275.355 276.159 275.355 276.159C275.355 276.159 276.519 272.567 275.364 270.22L280.192 267.991C280.192 267.991 281.392 270.482 281.997 272.639C282.114 273.063 282.214 273.478 282.268 273.857C282.611 276.15 279.615 281.907 279.615 281.907Z" fill="#24246B"/>
<path d="M279.615 281.907C279.615 281.907 272.133 282.025 271.095 281.907C270.247 281.817 270.942 279.489 271.853 277.954C275.373 273.189 279.154 279.38 279.154 279.38C280.616 277.593 281.564 274.381 281.988 272.639C282.105 273.063 282.205 273.478 282.259 273.857C282.611 276.15 279.615 281.907 279.615 281.907Z" fill="#EBF0F2"/>
<path d="M246.593 230.132C246.476 231.991 246.295 234.103 245.988 236.305C245.068 242.983 243.01 272.142 243.01 272.142C240.131 274.209 237.388 272.142 237.388 272.142L235.628 231.179L235.475 227.686L246.756 223.661C246.756 223.652 246.828 226.342 246.593 230.132Z" fill="url(#paint0_linear_4825_26199)"/>
<path d="M280.174 267.946C279.597 270.013 275.436 270.265 275.436 270.265C275.436 270.265 255.627 232.74 254.472 230.556C254.138 229.925 253.822 229.148 253.533 228.354C252.811 226.387 252.288 224.338 252.288 224.338L252.973 224.573L265.635 218.355L265.707 227.253L265.726 229.907C265.726 229.907 269.083 235.737 270.924 242.64C272.765 249.544 280.174 267.946 280.174 267.946Z" fill="url(#paint1_linear_4825_26199)"/>
<path d="M246.756 223.652C246.756 223.652 246.828 226.342 246.593 230.132L235.628 231.17L235.475 227.677L246.756 223.652Z" fill="url(#paint2_linear_4825_26199)"/>
<path d="M265.707 227.253L253.533 228.354C252.811 226.387 252.288 224.338 252.288 224.338L252.973 224.573L265.635 218.355L265.707 227.253Z" fill="url(#paint3_linear_4825_26199)"/>
<path d="M230.475 180.902C230.475 180.902 228.408 183.321 228.056 183.546C227.713 183.772 221.964 184.385 221.739 184.728C221.504 185.071 225.556 185.757 225.556 185.757C225.556 185.757 222.434 187.815 222.316 188.383C222.199 188.952 223.065 194.728 225.006 194.466C226.937 194.204 231.098 186.669 231.098 186.669L233.173 184.385L230.475 180.902Z" fill="url(#paint4_linear_4825_26199)"/>
<path d="M238.931 181.191L232.713 185.568L229.031 181.191C229.031 181.191 237.658 171.291 238.236 170.262C238.814 169.224 239.96 165.776 239.96 165.776L238.931 181.191Z" fill="url(#paint5_linear_4825_26199)"/>
<path d="M257.567 146.824C257.567 146.824 262.522 148.386 264.137 148.855C268.334 150.064 268.911 152.131 269.2 156.679C269.489 161.273 261.601 185.568 261.601 185.568L237.893 184.99C237.893 184.99 238.931 174.747 239.048 172.328C239.166 169.91 237.55 153.801 237.893 152.42C238.236 151.039 242.117 148.043 246.566 147.068L257.567 146.824Z" fill="url(#paint6_linear_4825_26199)"/>
<path d="M260.049 156.273C260.049 156.273 259.706 168.818 258.903 171.002C258.1 173.186 254.878 183.663 254.878 183.663L262.044 184.214L266.727 171.011L260.049 156.273Z" fill="url(#paint7_linear_4825_26199)"/>
<path d="M259.183 133.089C259.183 133.089 260.563 130.67 260.221 127.105C260.221 127.105 262.757 124.461 258.145 121.808C253.542 119.163 247.902 119.967 246.061 121.113C244.22 122.268 244.905 124.677 244.905 124.677C244.905 124.677 242.144 129.623 246.169 133.422L257.45 135.038L259.183 133.089Z" fill="#192EAD"/>
<path d="M247.929 146.608L245.032 147.582L249.057 171.065L258.957 147.122L256.313 146.554L247.929 146.608Z" fill="url(#paint8_linear_4825_26199)"/>
<path d="M251.818 148.855L249.012 170.785L252.513 148.855H251.818Z" fill="#D0D1D8"/>
<path d="M258.614 136.879C257.693 137.457 257.233 136.419 257.233 136.419C256.656 139.298 256.313 145.398 256.313 145.398C256.313 145.398 254.129 148.963 252.288 148.855C250.447 148.747 248.948 146.211 248.948 146.211L249.156 145.236L249.526 143.449C249.526 143.449 248.84 143.792 247.793 143.548C247.532 143.485 247.243 143.386 246.936 143.241H246.927C246.728 143.142 246.521 143.025 246.304 142.871C244.878 141.888 245.727 132.791 246.16 128.91C246.277 127.845 246.367 127.168 246.367 127.168C246.882 128.035 247.92 128.378 251.141 128.143C254.363 127.908 256.204 128.486 256.204 128.486C256.195 128.522 256.177 128.558 256.168 128.594C255.311 131.446 256.547 134.695 256.547 134.695C256.547 134.695 257.585 131.816 258.849 131.933C260.103 132.051 259.534 136.31 258.614 136.879Z" fill="url(#paint9_linear_4825_26199)"/>
<path d="M256.195 128.486C256.186 128.522 256.168 128.558 256.159 128.594C255.112 128.594 252.766 128.675 249.517 129.172C247.956 129.416 246.882 129.235 246.151 128.901C246.268 127.836 246.358 127.159 246.358 127.159C246.873 128.026 247.911 128.369 251.133 128.134C254.354 127.908 256.195 128.486 256.195 128.486Z" fill="#4864D8"/>
<path d="M253.434 140.913C253.434 140.913 252.324 144.758 249.147 145.227L249.517 143.44C249.517 143.44 248.831 143.783 247.784 143.539C248.822 143.72 250.753 143.512 253.434 140.913Z" fill="#4864D8"/>
<path d="M249.174 145.281C249.174 145.281 248.136 145.976 247.794 146.897C247.451 147.817 250.555 152.42 250.555 152.42L251.819 148.774C251.828 148.774 249.635 147.7 249.174 145.281Z" fill="#A7B3C6"/>
<path d="M256.313 145.281C256.313 145.281 257.116 146.084 257.233 147.005C257.35 147.925 253.434 152.411 253.434 152.411L252.513 148.846C252.513 148.855 254.697 147.582 256.313 145.281Z" fill="#A7B3C6"/>
<path d="M291.446 176.687L299.072 212.714C299.325 213.897 298.964 215.07 298.215 215.9C297.845 216.315 297.367 216.64 296.825 216.848C296.654 216.92 296.464 216.974 296.275 217.01L235.935 229.789C235.646 229.852 235.357 229.879 235.077 229.87C234.527 229.852 233.994 229.717 233.525 229.473C232.596 228.995 231.874 228.111 231.639 227L224.013 190.974C223.86 190.27 223.932 189.566 224.166 188.934C224.591 187.824 225.556 186.939 226.802 186.669L287.141 173.89C288.423 173.619 289.686 174.061 290.526 174.946C290.986 175.424 291.302 176.01 291.446 176.687Z" fill="url(#paint10_linear_4825_26199)"/>
<path d="M291.446 176.687L293.197 184.954C285.192 191.434 266.141 206.767 263.975 207.498C261.484 208.346 229.861 193.843 224.049 191.163L224.004 190.965C223.85 190.261 223.923 189.557 224.157 188.925C224.581 187.815 225.547 186.93 226.792 186.66L287.132 173.881C288.414 173.61 289.677 174.052 290.516 174.937C290.986 175.424 291.302 176.01 291.446 176.687Z" fill="url(#paint11_linear_4825_26199)"/>
<path d="M289.677 218.409L294.749 192.255L299.081 212.714C299.334 213.897 298.973 215.07 298.224 215.9C297.854 216.315 297.375 216.64 296.834 216.848C296.662 216.92 296.473 216.974 296.283 217.01L289.677 218.409Z" fill="url(#paint12_linear_4825_26199)"/>
<path d="M290.535 174.955L263.776 201.812C263.532 202.056 263.262 202.264 262.973 202.435C262.783 202.543 262.594 202.643 262.395 202.724C261.827 202.949 261.213 203.049 260.599 203.004C260.464 202.995 260.338 202.977 260.202 202.958C259.922 202.913 259.652 202.841 259.39 202.733L252.152 199.899L250.771 199.358L224.175 188.934C224.599 187.824 225.565 186.939 226.811 186.669L287.15 173.89C288.432 173.628 289.695 174.07 290.535 174.955Z" fill="url(#paint13_linear_4825_26199)"/>
<path d="M224.202 188.898C224.202 188.898 226.504 189.358 227.542 189.475C228.579 189.593 228.002 190.17 226.847 190.279C225.691 190.396 226.657 194.015 224.798 194.674C224.798 194.674 222.596 191.082 224.202 188.898Z" fill="url(#paint14_linear_4825_26199)"/>
<path d="M258.497 194.538C258.497 194.538 257.919 195.197 257.279 195.973C256.854 196.497 256.403 197.065 256.078 197.526C255.275 198.681 255.04 202.011 254.12 202.363C253.199 202.706 250.555 202.246 250.095 202.597C249.635 202.94 247.676 203.753 247.333 203.518C246.99 203.283 248.949 202.137 249.869 200.982C250.79 199.827 251.945 197.643 251.024 197.76C250.104 197.878 247.92 198.563 248.606 197.995C249.301 197.417 252.288 195.811 252.631 195.459C252.802 195.287 253.308 194.665 253.759 194.096C254.201 193.546 254.589 193.04 254.589 193.04L258.497 194.538Z" fill="url(#paint15_linear_4825_26199)"/>
<path d="M258.497 194.538C258.497 194.538 257.919 195.197 257.278 195.973L253.75 194.096C254.192 193.546 254.58 193.04 254.58 193.04L258.497 194.538Z" fill="#4864D8"/>
<path d="M270.464 172.211C270.121 174.395 268.162 179.115 264.706 184.981C261.249 190.847 258.948 195.45 258.948 195.45L256.241 194.241L253.533 193.031C253.533 193.031 255.789 188.374 257.676 184.404C259.86 179.801 262.053 173.475 262.053 170.821C262.053 168.168 258.948 159.315 260.329 154.712C261.204 151.797 263.785 150.777 265.852 150.976C267.052 151.093 268.072 151.616 268.496 152.411C269.661 154.604 270.807 170.027 270.464 172.211Z" fill="url(#paint16_linear_4825_26199)"/>
<path d="M270.464 172.211C270.121 174.395 268.162 179.115 264.706 184.981C261.249 190.847 258.948 195.45 258.948 195.45L256.241 194.241C265.374 186.109 267.007 173.619 268.325 168.348C269.706 162.825 265.852 150.976 265.852 150.976C267.052 151.093 268.072 151.616 268.496 152.411C269.661 154.604 270.807 170.027 270.464 172.211Z" fill="url(#paint17_linear_4825_26199)"/>
<path d="M129.415 164.874H110.617V263.948H129.415V164.874Z" fill="#1E46C4"/>
<path d="M116.763 164.874H110.617V263.948H116.763V164.874Z" fill="#1631A4"/>
<path d="M144.857 248.94C144.857 248.94 140.696 217.84 135.994 217.118C131.293 216.396 128.946 224.347 130.751 248.94L138.702 261.953L144.857 248.94Z" fill="url(#paint18_linear_4825_26199)"/>
<path d="M135.994 263.948C138.377 255.004 139.541 247.658 140.155 242.794C142.185 226.721 140.362 214.068 147.383 203.383C150.488 198.663 153.818 197.724 155.515 197.778C158.601 197.878 162.022 199.944 162.744 205.368C165.126 223.219 147.916 263.939 147.916 263.939H135.994V263.948Z" fill="url(#paint19_linear_4825_26199)"/>
<path d="M144.857 263.948C144.857 263.948 147.375 227.822 160.948 219.654C174.521 211.487 175.938 224.564 168.357 237.189C156.427 257.08 156.968 263.948 156.968 263.948H144.857Z" fill="url(#paint20_linear_4825_26199)"/>
<path d="M157.103 254.517C157.103 254.517 168.899 239.175 175.586 240.619C182.274 242.063 173.059 263.939 173.059 263.939H150.208L157.103 254.517Z" fill="url(#paint21_linear_4825_26199)"/>
<path d="M175.577 263.948C175.577 263.948 180.478 250.032 186.262 250.032C192.047 250.032 189.34 263.948 189.34 263.948H175.577Z" fill="url(#paint22_linear_4825_26199)"/>
<path d="M141.969 263.948C141.969 263.948 141.066 244.427 136.004 235.385C130.941 226.342 121.997 230.195 124.795 240.447C128.053 252.378 129.677 263.948 129.677 263.948H141.969Z" fill="url(#paint23_linear_4825_26199)"/>
<path d="M186.073 255.627L183.221 263.948" stroke="#405CC6" stroke-width="1.0016" stroke-miterlimit="10" stroke-linecap="round"/>
<path d="M174.323 245.14C174.323 245.14 167.491 254.364 165.93 263.939" stroke="#405CC6" stroke-width="1.0016" stroke-miterlimit="10" stroke-linecap="round"/>
<path d="M166.58 224.753C166.58 224.753 156.066 240.799 150.281 263.939" stroke="#405CC6" stroke-width="1.0016" stroke-miterlimit="10" stroke-linecap="round"/>
<path d="M130.76 239.175C130.76 239.175 135.823 254.544 136.004 263.939" stroke="#405CC6" stroke-width="1.0016" stroke-miterlimit="10" stroke-linecap="round"/>
<path d="M92.1699 248.94C92.1699 248.94 96.3303 217.84 101.032 217.118C105.734 216.396 108.081 224.347 106.276 248.94L98.3248 261.953L92.1699 248.94Z" fill="url(#paint24_linear_4825_26199)"/>
<path d="M101.032 263.948C98.6499 255.004 97.4857 247.658 96.8721 242.794C94.8415 226.721 96.6645 214.068 89.6432 203.383C86.5387 198.663 83.2085 197.724 81.5119 197.778C78.4254 197.878 75.005 199.944 74.283 205.368C71.9005 223.219 89.1107 263.939 89.1107 263.939H101.032V263.948Z" fill="url(#paint25_linear_4825_26199)"/>
<path d="M71.2055 263.948C71.2055 263.948 72.469 223.454 63.4352 212.787C54.3923 202.119 46.604 215.692 50.9629 226.703C57.4698 243.155 60.1863 263.948 60.1863 263.948H71.2055Z" fill="url(#paint26_linear_4825_26199)"/>
<path d="M183.997 79.5535C165.352 80.0409 150.38 95.3108 150.38 114.073V164.874H70.8442V114.073C70.8442 95.004 86.3037 79.5445 105.373 79.5445H183.113C183.41 79.5445 183.699 79.5445 183.997 79.5535Z" fill="#FF911E"/>
<path d="M217.642 114.073V164.874H150.389V114.073C150.389 96.4118 163.647 81.8458 180.758 79.7882C181.822 79.6618 182.905 79.5806 183.997 79.5535H184.025C202.67 80.0409 217.642 95.3108 217.642 114.073Z" fill="#294DC1"/>
<path d="M211.126 114.073V164.874H150.38V114.073C150.38 96.4118 163.637 81.8458 180.748 79.7881C197.868 81.8458 211.126 96.4118 211.126 114.073Z" fill="#1631A4"/>
<path d="M183.997 79.5535C182.905 79.5806 181.822 79.6618 180.748 79.7882C163.637 81.8458 150.38 96.4118 150.38 114.073V141.734H70.8442V114.073C70.8442 95.004 86.3037 79.5445 105.373 79.5445H183.113C183.41 79.5445 183.699 79.5445 183.997 79.5535Z" fill="url(#paint27_linear_4825_26199)"/>
<path d="M98.3157 153.124C98.3157 154.92 96.8627 156.382 95.0578 156.382C93.2528 156.382 91.7998 154.929 91.7998 153.124C91.7998 151.328 93.2528 149.866 95.0578 149.866C96.8627 149.866 98.3157 151.328 98.3157 153.124Z" fill="#EF6520"/>
<path d="M110.616 153.124C110.616 154.92 109.163 156.382 107.359 156.382C105.563 156.382 104.101 154.929 104.101 153.124C104.101 151.328 105.554 149.866 107.359 149.866C109.154 149.866 110.616 151.328 110.616 153.124Z" fill="#EF6520"/>
<path d="M121.465 153.124C121.465 154.92 120.012 156.382 118.207 156.382C116.411 156.382 114.949 154.929 114.949 153.124C114.949 151.328 116.402 149.866 118.207 149.866C120.003 149.866 121.465 151.328 121.465 153.124Z" fill="#EF6520"/>
<path d="M217.642 164.874V206.812C217.642 223.589 204.041 237.181 187.273 237.181H180.766C163.989 237.181 150.398 223.58 150.398 206.812V164.874H217.642Z" fill="#294DC1"/>
<path d="M217.642 164.874V206.812C217.642 218.517 211.017 228.688 201.307 233.751C197.11 235.944 192.336 237.181 187.273 237.181H183.293C166.516 237.181 152.925 223.58 152.925 206.812V164.874H217.642Z" fill="#E0E3EA"/>
<path d="M92.1699 263.948C92.1699 263.948 89.6519 227.822 76.0787 219.654C62.5054 211.487 61.0885 224.564 68.6693 237.189C80.6001 257.08 80.0586 263.948 80.0586 263.948H92.1699Z" fill="url(#paint28_linear_4825_26199)"/>
<path d="M79.9234 254.517C79.9234 254.517 68.128 239.175 61.4407 240.619C54.7533 242.063 63.9676 263.939 63.9676 263.939H86.8183L79.9234 254.517Z" fill="url(#paint29_linear_4825_26199)"/>
<path d="M61.4587 263.948C61.4587 263.948 56.5582 250.032 50.7733 250.032C44.9884 250.032 47.6959 263.948 47.6959 263.948H61.4587Z" fill="url(#paint30_linear_4825_26199)"/>
<path d="M95.0669 263.948C95.0669 263.948 95.9694 244.427 101.032 235.385C106.095 226.342 115.039 230.195 112.241 240.447C108.983 252.378 107.359 263.948 107.359 263.948H95.0669Z" fill="url(#paint31_linear_4825_26199)"/>
<path d="M50.9536 255.627L53.8054 263.948" stroke="#405CC6" stroke-width="1.0016" stroke-miterlimit="10" stroke-linecap="round"/>
<path d="M62.7041 245.14C62.7041 245.14 69.5359 254.364 71.0881 263.939" stroke="#405CC6" stroke-width="1.0016" stroke-miterlimit="10" stroke-linecap="round"/>
<path d="M70.4565 224.753C70.4565 224.753 80.9704 240.799 86.7553 263.939" stroke="#405CC6" stroke-width="1.0016" stroke-miterlimit="10" stroke-linecap="round"/>
<path d="M106.276 239.175C106.276 239.175 101.213 254.544 101.032 263.939" stroke="#405CC6" stroke-width="1.0016" stroke-miterlimit="10" stroke-linecap="round"/>
<path d="M180.757 79.7881C163.646 81.8458 150.389 96.4118 150.389 114.073V141.734H111.664C116.257 138.467 120.011 131.942 120.011 119.317V110.761C120.011 93.6592 133.874 79.7881 150.985 79.7881H180.757Z" fill="url(#paint32_linear_4825_26199)"/>
<path d="M135.561 119.317C133.765 119.317 132.303 117.864 132.303 116.059V34.7094H138.81V116.059C138.819 117.855 137.357 119.317 135.561 119.317Z" fill="#1631A4"/>
<path d="M138.819 34.7094H114.407L138.819 54.7715V34.7094Z" fill="#FF911E"/>
<path d="M201.298 233.76C197.101 235.953 192.327 237.19 187.264 237.19H183.284C166.507 237.19 152.916 223.589 152.916 206.821V164.883H157.663L201.298 233.76Z" fill="#CED1D8"/>
<path d="M126.654 124.867H126.645V124.668L126.654 124.867Z" fill="url(#paint33_linear_4825_26199)"/>
<path d="M204.628 161.318C204.637 162.527 204.051 163.601 203.139 164.269C202.697 164.594 202.165 164.82 201.596 164.919C201.407 164.946 201.217 164.964 201.028 164.964L159.071 165.181V121.104L200.793 120.887C202.101 120.878 203.257 121.573 203.897 122.611C204.231 123.161 204.43 123.802 204.439 124.497L204.448 126.681L204.628 161.318Z" fill="url(#paint34_linear_4825_26199)"/>
<path d="M204.493 126.654C204.475 126.663 204.466 126.672 204.448 126.681C195.279 131.446 173.565 148.837 171.309 149.126C170.262 149.252 165.154 146.039 159.071 141.897V121.113L200.793 120.896C202.101 120.887 203.257 121.582 203.897 122.62C204.231 123.17 204.43 123.811 204.439 124.506L204.493 126.654Z" fill="url(#paint35_linear_4825_26199)"/>
<path d="M203.897 122.611L172.256 143.512C171.967 143.702 171.661 143.855 171.345 143.963C171.137 144.036 170.93 144.09 170.722 144.126C170.117 144.234 169.495 144.207 168.899 144.036C168.773 144 168.646 143.963 168.52 143.909C168.258 143.81 168.006 143.684 167.771 143.521L161.255 139.28L160.01 138.467L159.062 137.854V121.104L200.784 120.887C202.101 120.878 203.256 121.573 203.897 122.611Z" fill="url(#paint36_linear_4825_26199)"/>
<path d="M195.766 161.138C195.775 162.347 195.188 163.421 194.277 164.089C193.834 164.414 193.302 164.648 192.733 164.738C192.544 164.766 192.354 164.784 192.165 164.784L150.208 165V120.923L191.93 120.707C193.239 120.698 194.394 121.392 195.035 122.43C195.369 122.981 195.567 123.622 195.576 124.316L195.585 126.5L195.766 161.138Z" fill="url(#paint37_linear_4825_26199)"/>
<path d="M126.654 124.867H126.645V124.668L126.654 124.867Z" fill="url(#paint38_linear_4825_26199)"/>
<path d="M195.639 126.473C195.621 126.482 195.612 126.491 195.594 126.5C186.425 131.266 164.711 148.656 162.455 148.945C161.408 149.071 156.3 145.859 150.217 141.716V120.932L191.939 120.716C193.247 120.707 194.403 121.401 195.043 122.439C195.377 122.99 195.576 123.631 195.585 124.325L195.639 126.473Z" fill="url(#paint39_linear_4825_26199)"/>
<path d="M195.044 122.43L163.403 143.332C163.114 143.521 162.807 143.675 162.491 143.783C162.284 143.855 162.076 143.909 161.869 143.945C161.264 144.054 160.641 144.027 160.046 143.855C159.919 143.819 159.793 143.783 159.666 143.729C159.405 143.63 159.152 143.503 158.917 143.341L152.402 139.099L151.156 138.287L150.208 137.673V120.923L191.93 120.707C193.248 120.698 194.394 121.392 195.044 122.43Z" fill="url(#paint40_linear_4825_26199)"/>
<path d="M208.779 125.102C208.779 125.102 209.619 124.966 210.972 124.587" stroke="#18317F" stroke-width="1.6026" stroke-miterlimit="10" stroke-linecap="round"/>
<path d="M215.945 122.782C224.681 118.847 237.613 108.74 231.928 84.2464C223.616 48.4541 224.699 19.5206 245.844 7.95081C261.592 -0.667863 279.254 5.55924 287.241 9.2955" stroke="#18317F" stroke-width="1.6026" stroke-miterlimit="10" stroke-linecap="round" stroke-dasharray="4.88 4.88"/>
<path d="M289.605 10.4688C290.878 11.1366 291.573 11.5698 291.573 11.5698" stroke="#18317F" stroke-width="1.6026" stroke-miterlimit="10" stroke-linecap="round"/>
<path d="M293.26 13.2664L287.963 19.8094L313.819 29.4659L302.132 3.60992L296.681 10.6222L303.54 19.0333L293.26 13.2664Z" fill="url(#paint41_linear_4825_26199)"/>
<path d="M14.3945 24.8272L22.3363 27.5978L22.6702 0L2.30127 19.7462L10.7394 22.4988L16.3348 13.2033L14.3945 24.8272Z" fill="url(#paint42_linear_4825_26199)"/>
<path d="M150.389 132.565C150.389 132.565 180.631 128.342 170.099 107.566C144.785 57.6684 68.5431 112.747 37.7596 87.4953C5.57716 61.1069 11.362 24.0421 11.362 24.0421" stroke="#18317F" stroke-width="1.6026" stroke-miterlimit="10" stroke-linecap="round" stroke-dasharray="5.01 5.01"/>
<path d="M276.573 34.7093C273.388 28.1573 262.657 32.5434 269.164 41.2162C275.671 49.8981 282.539 47.0011 276.573 34.7093Z" fill="#EDEFF4"/>
<path d="M313.999 38.8698C308.602 38.1658 293.206 42.3714 293.206 51.342C293.206 56.4049 304.956 60.3849 316.707 54.7805C328.457 49.167 329.179 40.8552 313.999 38.8698Z" fill="#EDEFF4"/>
<path d="M46.9741 263.948C46.9741 263.948 47.5156 273.352 66.8648 273.352C86.2049 273.352 103.569 271.186 124.172 288.541C144.785 305.895 195.405 308.792 208.78 296.491C222.154 284.2 189.981 263.948 189.981 263.948H46.9741Z" fill="#EDEFF4"/>
</g>
<defs>
<linearGradient id="paint0_linear_4825_26199" x1="241.218" y1="224.342" x2="239.625" y2="267.745" gradientUnits="userSpaceOnUse">
<stop stop-color="#24247F"/>
<stop offset="1" stop-color="#2D2D96"/>
</linearGradient>
<linearGradient id="paint1_linear_4825_26199" x1="255.759" y1="215.705" x2="275.786" y2="256.576" gradientUnits="userSpaceOnUse">
<stop stop-color="#24247F"/>
<stop offset="1" stop-color="#2D2D96"/>
</linearGradient>
<linearGradient id="paint2_linear_4825_26199" x1="241.124" y1="224.324" x2="241.124" y2="238.242" gradientUnits="userSpaceOnUse">
<stop stop-color="#242463"/>
<stop offset="1" stop-color="#242463" stop-opacity="0"/>
</linearGradient>
<linearGradient id="paint3_linear_4825_26199" x1="258.993" y1="219.252" x2="258.993" y2="237.742" gradientUnits="userSpaceOnUse">
<stop stop-color="#242463"/>
<stop offset="1" stop-color="#242463" stop-opacity="0"/>
</linearGradient>
<linearGradient id="paint4_linear_4825_26199" x1="221.729" y1="187.69" x2="233.179" y2="187.69" gradientUnits="userSpaceOnUse">
<stop stop-color="#546AEA"/>
<stop offset="1" stop-color="#658BFD"/>
</linearGradient>
<linearGradient id="paint5_linear_4825_26199" x1="243.528" y1="170.652" x2="225.993" y2="182.886" gradientUnits="userSpaceOnUse">
<stop stop-color="#E1E1E1"/>
<stop offset="1" stop-color="white"/>
</linearGradient>
<linearGradient id="paint6_linear_4825_26199" x1="261.581" y1="183.668" x2="240.868" y2="146.383" gradientUnits="userSpaceOnUse">
<stop stop-color="#F4BA38"/>
<stop offset="1" stop-color="#FFD349"/>
</linearGradient>
<linearGradient id="paint7_linear_4825_26199" x1="260.99" y1="186.5" x2="260.3" y2="153.705" gradientUnits="userSpaceOnUse">
<stop stop-color="#FF911E"/>
<stop offset="1" stop-color="#FE931E" stop-opacity="0"/>
</linearGradient>
<linearGradient id="paint8_linear_4825_26199" x1="252.947" y1="200.116" x2="251.912" y2="142.802" gradientUnits="userSpaceOnUse">
<stop stop-color="#E1E1E1"/>
<stop offset="1" stop-color="white"/>
</linearGradient>
<linearGradient id="paint9_linear_4825_26199" x1="245.503" y1="138.007" x2="259.572" y2="138.007" gradientUnits="userSpaceOnUse">
<stop stop-color="#546AEA"/>
<stop offset="1" stop-color="#658BFD"/>
</linearGradient>
<linearGradient id="paint10_linear_4825_26199" x1="291.619" y1="180.326" x2="238.223" y2="218.532" gradientUnits="userSpaceOnUse">
<stop stop-color="#DFE1E5"/>
<stop offset="1" stop-color="#F3F3F3"/>
</linearGradient>
<linearGradient id="paint11_linear_4825_26199" x1="257.941" y1="139.519" x2="258.862" y2="210.406" gradientUnits="userSpaceOnUse">
<stop stop-color="#B9BEC6"/>
<stop offset="1" stop-color="#B9BEC6" stop-opacity="0"/>
</linearGradient>
<linearGradient id="paint12_linear_4825_26199" x1="330.66" y1="231.368" x2="286.47" y2="201.448" gradientUnits="userSpaceOnUse">
<stop stop-color="#B9BEC6"/>
<stop offset="1" stop-color="#B9BEC6" stop-opacity="0"/>
</linearGradient>
<linearGradient id="paint13_linear_4825_26199" x1="263.885" y1="158.971" x2="250.536" y2="205.922" gradientUnits="userSpaceOnUse">
<stop stop-color="#DFE1E5"/>
<stop offset="1" stop-color="#F3F3F3"/>
</linearGradient>
<linearGradient id="paint14_linear_4825_26199" x1="223.614" y1="191.788" x2="228.08" y2="191.788" gradientUnits="userSpaceOnUse">
<stop stop-color="#546AEA"/>
<stop offset="1" stop-color="#658BFD"/>
</linearGradient>
<linearGradient id="paint15_linear_4825_26199" x1="247.293" y1="198.297" x2="258.496" y2="198.297" gradientUnits="userSpaceOnUse">
<stop stop-color="#546AEA"/>
<stop offset="1" stop-color="#658BFD"/>
</linearGradient>
<linearGradient id="paint16_linear_4825_26199" x1="277.449" y1="174.996" x2="259.167" y2="172.835" gradientUnits="userSpaceOnUse">
<stop stop-color="#E1E1E1"/>
<stop offset="1" stop-color="white"/>
</linearGradient>
<linearGradient id="paint17_linear_4825_26199" x1="292.252" y1="182.021" x2="242.188" y2="167.175" gradientUnits="userSpaceOnUse">
<stop stop-color="#BCCACE"/>
<stop offset="1" stop-color="#BCCACE" stop-opacity="0"/>
</linearGradient>
<linearGradient id="paint18_linear_4825_26199" x1="137.553" y1="248.908" x2="137.282" y2="212.843" gradientUnits="userSpaceOnUse">
<stop stop-color="#404FD9"/>
<stop offset="1" stop-color="#658BFD"/>
</linearGradient>
<linearGradient id="paint19_linear_4825_26199" x1="149.388" y1="238.673" x2="155.218" y2="187.375" gradientUnits="userSpaceOnUse">
<stop stop-color="#4F6AD9"/>
<stop offset="1" stop-color="#658BFD"/>
</linearGradient>
<linearGradient id="paint20_linear_4825_26199" x1="155.882" y1="268.576" x2="160.221" y2="232.776" gradientUnits="userSpaceOnUse">
<stop stop-color="#546AEA"/>
<stop offset="1" stop-color="#658BFD"/>
</linearGradient>
<linearGradient id="paint21_linear_4825_26199" x1="162.394" y1="269.365" x2="166.733" y2="233.566" gradientUnits="userSpaceOnUse">
<stop stop-color="#546AEA"/>
<stop offset="1" stop-color="#658BFD"/>
</linearGradient>
<linearGradient id="paint22_linear_4825_26199" x1="181.549" y1="271.687" x2="185.889" y2="235.887" gradientUnits="userSpaceOnUse">
<stop stop-color="#546AEA"/>
<stop offset="1" stop-color="#658BFD"/>
</linearGradient>
<linearGradient id="paint23_linear_4825_26199" x1="131.228" y1="265.587" x2="135.568" y2="229.788" gradientUnits="userSpaceOnUse">
<stop stop-color="#546AEA"/>
<stop offset="1" stop-color="#658BFD"/>
</linearGradient>
<linearGradient id="paint24_linear_4825_26199" x1="99.4762" y1="248.908" x2="99.7474" y2="212.843" gradientUnits="userSpaceOnUse">
<stop stop-color="#404FD9"/>
<stop offset="1" stop-color="#658BFD"/>
</linearGradient>
<linearGradient id="paint25_linear_4825_26199" x1="87.6411" y1="238.673" x2="81.8118" y2="187.375" gradientUnits="userSpaceOnUse">
<stop stop-color="#4F6AD9"/>
<stop offset="1" stop-color="#658BFD"/>
</linearGradient>
<linearGradient id="paint26_linear_4825_26199" x1="61.6754" y1="243.985" x2="56.4559" y2="198.053" gradientUnits="userSpaceOnUse">
<stop stop-color="#4F6AD9"/>
<stop offset="1" stop-color="#658BFD"/>
</linearGradient>
<linearGradient id="paint27_linear_4825_26199" x1="165.933" y1="110.638" x2="52.3994" y2="110.638" gradientUnits="userSpaceOnUse">
<stop stop-color="#F4BA38"/>
<stop offset="1" stop-color="#FFD349"/>
</linearGradient>
<linearGradient id="paint28_linear_4825_26199" x1="81.1475" y1="268.576" x2="76.8083" y2="232.776" gradientUnits="userSpaceOnUse">
<stop stop-color="#546AEA"/>
<stop offset="1" stop-color="#658BFD"/>
</linearGradient>
<linearGradient id="paint29_linear_4825_26199" x1="74.6359" y1="269.365" x2="70.2966" y2="233.566" gradientUnits="userSpaceOnUse">
<stop stop-color="#546AEA"/>
<stop offset="1" stop-color="#658BFD"/>
</linearGradient>
<linearGradient id="paint30_linear_4825_26199" x1="55.4806" y1="271.687" x2="51.1413" y2="235.887" gradientUnits="userSpaceOnUse">
<stop stop-color="#546AEA"/>
<stop offset="1" stop-color="#658BFD"/>
</linearGradient>
<linearGradient id="paint31_linear_4825_26199" x1="105.802" y1="265.587" x2="101.462" y2="229.788" gradientUnits="userSpaceOnUse">
<stop stop-color="#546AEA"/>
<stop offset="1" stop-color="#658BFD"/>
</linearGradient>
<linearGradient id="paint32_linear_4825_26199" x1="218.774" y1="121.792" x2="83.2117" y2="101.186" gradientUnits="userSpaceOnUse">
<stop stop-color="#FF911E"/>
<stop offset="1" stop-color="#FE931E" stop-opacity="0"/>
</linearGradient>
<linearGradient id="paint33_linear_4825_26199" x1="126.616" y1="124.699" x2="126.795" y2="125.085" gradientUnits="userSpaceOnUse">
<stop stop-color="#F9A82C"/>
<stop offset="0.9961" stop-color="#FAA72C" stop-opacity="0"/>
</linearGradient>
<linearGradient id="paint34_linear_4825_26199" x1="204.241" y1="126.13" x2="162.597" y2="155.927" gradientUnits="userSpaceOnUse">
<stop stop-color="#546AEA"/>
<stop offset="1" stop-color="#658BFD"/>
</linearGradient>
<linearGradient id="paint35_linear_4825_26199" x1="174.122" y1="116.326" x2="204.339" y2="181.556" gradientUnits="userSpaceOnUse">
<stop stop-color="#4864D8"/>
<stop offset="0.9961" stop-color="#4864D8" stop-opacity="0"/>
</linearGradient>
<linearGradient id="paint36_linear_4825_26199" x1="185.023" y1="109.404" x2="173.408" y2="150.257" gradientUnits="userSpaceOnUse">
<stop stop-color="#546AEA"/>
<stop offset="1" stop-color="#658BFD"/>
</linearGradient>
<linearGradient id="paint37_linear_4825_26199" x1="195.382" y1="125.949" x2="153.738" y2="155.746" gradientUnits="userSpaceOnUse">
<stop stop-color="#FCEA45"/>
<stop offset="1" stop-color="#F9C53F"/>
</linearGradient>
<linearGradient id="paint38_linear_4825_26199" x1="126.616" y1="124.699" x2="126.795" y2="125.085" gradientUnits="userSpaceOnUse">
<stop stop-color="#F9A82C"/>
<stop offset="0.9961" stop-color="#FAA72C" stop-opacity="0"/>
</linearGradient>
<linearGradient id="paint39_linear_4825_26199" x1="165.263" y1="116.145" x2="195.48" y2="181.375" gradientUnits="userSpaceOnUse">
<stop stop-color="#F9A82C"/>
<stop offset="0.9961" stop-color="#FAA72C" stop-opacity="0"/>
</linearGradient>
<linearGradient id="paint40_linear_4825_26199" x1="176.165" y1="109.223" x2="164.55" y2="150.076" gradientUnits="userSpaceOnUse">
<stop stop-color="#FCEA45"/>
<stop offset="1" stop-color="#F9C53F"/>
</linearGradient>
<linearGradient id="paint41_linear_4825_26199" x1="287.964" y1="16.5387" x2="313.816" y2="16.5387" gradientUnits="userSpaceOnUse">
<stop stop-color="#546AEA"/>
<stop offset="1" stop-color="#658BFD"/>
</linearGradient>
<linearGradient id="paint42_linear_4825_26199" x1="19.2621" y1="28.7018" x2="10.5113" y2="4.37518" gradientUnits="userSpaceOnUse">
<stop stop-color="#546AEA"/>
<stop offset="1" stop-color="#658BFD"/>
</linearGradient>
<clipPath id="clip0_4825_26199">
<rect width="372.624" height="304" fill="white"/>
</clipPath>
</defs>
</svg>
