<svg width="88" height="120" viewBox="0 0 88 120" fill="none" xmlns="http://www.w3.org/2000/svg">
<path d="M54.7474 88.3701H32.3174V96.6301H54.7474V88.3701Z" fill="#717EBA"/>
<path d="M52.5378 78.6802H34.3178C34.3178 78.6802 34.7779 90.1802 32.5479 93.5202H54.5479C52.3079 90.1802 52.5378 78.6802 52.5378 78.6802Z" fill="#F4B88E"/>
<g style="mix-blend-mode:multiply">
<path d="M34.0879 87.3701C37.0084 89.0397 40.3139 89.9187 43.6779 89.9202C46.8894 89.8864 50.058 89.1777 52.9779 87.8401C52.6416 84.7989 52.4947 81.7397 52.5379 78.6802H34.3179C34.4133 81.5788 34.3365 84.4806 34.0879 87.3701Z" fill="#F5DCD6"/>
</g>
<path d="M78.7577 101.5L52.3077 92.02H34.7577L8.30767 101.5C8.30767 101.5 -0.952335 104.5 0.127665 119.32H86.9177C88.1877 103.63 78.7577 101.5 78.7577 101.5Z" fill="#F4B88E"/>
<path d="M78.7576 101.5L57.1276 93.7899L43.5376 103.27L30.2676 93.6699L8.26762 101.54C8.26762 101.54 -0.992374 104.54 0.0876258 119.36H86.8776C88.1876 103.63 78.7576 101.5 78.7576 101.5Z" fill="#42A7D9"/>
<path d="M63.4979 56.0701C62.8679 59.9501 63.958 63.4002 65.928 63.7702C67.898 64.1402 69.9979 61.3002 70.6179 57.4202C71.2379 53.5402 70.1579 50.0801 68.1879 49.7101C66.2179 49.3401 64.1179 52.1801 63.4979 56.0701Z" fill="#F4B88E"/>
<path d="M65.8576 55.0199C65.8576 55.0199 65.8576 54.7999 65.9676 54.4499C66.0766 53.9672 66.2375 53.4978 66.4476 53.0499C66.6876 52.5299 67.0876 51.9299 67.5876 51.8999C67.717 51.8951 67.846 51.9155 67.9676 51.9599C68.0329 51.9855 68.0964 52.0156 68.1576 52.0499C68.1576 52.0999 68.2476 52.1099 68.2976 52.1699C68.5219 52.4118 68.6863 52.7029 68.7776 53.0199C68.8916 53.3777 68.9687 53.7463 69.0076 54.1199C69.0425 54.489 69.0425 54.8607 69.0076 55.2299C68.9476 55.6199 68.9276 56.0199 68.8576 56.3599L68.6676 57.3599C68.5876 57.6699 68.5276 57.9499 68.4776 58.1999C68.4276 58.4499 68.3476 58.6599 68.2976 58.8399C68.1976 59.1999 68.1476 59.3998 68.1476 59.3998C68.1476 59.3998 68.2476 59.2298 68.4076 58.8998C68.4876 58.7398 68.5976 58.5499 68.6976 58.3099C68.7976 58.0699 68.9076 57.7999 69.0176 57.4999C69.1276 57.1999 69.2276 56.8499 69.3276 56.4999C69.4276 56.1499 69.4876 55.7699 69.5676 55.3699C69.6435 54.9307 69.6603 54.4834 69.6176 54.0399C69.5828 53.592 69.499 53.1494 69.3676 52.7199C69.2373 52.2907 68.9999 51.9018 68.6776 51.5899C68.595 51.5067 68.5007 51.4359 68.3976 51.3799L68.1276 51.2699C67.933 51.2297 67.7322 51.2297 67.5376 51.2699C67.3331 51.3082 67.1387 51.3884 66.9666 51.5054C66.7945 51.6224 66.6485 51.7737 66.5376 51.9499C66.3311 52.2574 66.1726 52.5946 66.0676 52.9499C65.9125 53.4561 65.8251 53.9807 65.8076 54.5099C65.8162 54.6806 65.8329 54.8508 65.8576 55.0199Z" fill="#F2A57F"/>
<path d="M65.8583 55.0203C65.8583 55.0203 65.6783 54.6003 66.9783 54.5103C66.9783 54.5103 68.4283 54.7703 67.5783 56.7103C67.3797 57.1243 67.232 57.5608 67.1383 58.0103C67.0083 58.6603 67.2383 59.5403 66.8983 60.1103C66.4483 60.8603 65.3083 60.4303 65.2383 59.5803C65.3583 58.773 65.6742 58.0074 66.1583 57.3503C66.4107 56.9954 66.52 56.5584 66.4644 56.1265C66.4088 55.6946 66.1923 55.2996 65.8583 55.0203Z" fill="#F2A57F"/>
<path d="M65.2375 59.5C65.1982 59.5268 65.1643 59.5607 65.1375 59.6C65.0558 59.713 64.9918 59.8378 64.9475 59.97C64.9125 60.0566 64.889 60.1474 64.8775 60.24C64.8572 60.3457 64.8572 60.4543 64.8775 60.56C64.8775 60.67 64.8775 60.79 64.8775 60.91C64.8775 61.03 64.9475 61.12 64.9775 61.23C65.0194 61.3339 65.0696 61.4342 65.1275 61.53C65.1875 61.61 65.2575 61.68 65.3175 61.75C65.4174 61.8837 65.5576 61.9819 65.7175 62.03C65.8538 62.0999 66.0043 62.1375 66.1575 62.14C66.105 61.9777 66.0381 61.8204 65.9575 61.67C65.9245 61.6078 65.8878 61.5477 65.8475 61.49C65.8236 61.4176 65.7935 61.3473 65.7575 61.28C65.7269 61.207 65.6901 61.1367 65.6475 61.07C65.6165 61.0017 65.5898 60.9316 65.5675 60.86C65.4995 60.7226 65.4459 60.5785 65.4075 60.43C65.3829 60.3614 65.3629 60.2912 65.3475 60.22C65.3475 60.14 65.3475 60.07 65.3475 60.01C65.2675 59.79 65.2375 59.5 65.2375 59.5Z" fill="#F2A57F"/>
<path d="M23.8779 56.0701C24.5079 59.9501 23.4179 63.4002 21.4479 63.7702C19.4779 64.1402 17.3779 61.3002 16.7479 57.4202C16.1179 53.5402 17.2079 50.0801 19.1879 49.7101C21.1679 49.3401 23.2479 52.1801 23.8779 56.0701Z" fill="#F4B88E"/>
<path d="M21.5078 55.0201C21.5078 55.0201 21.5078 54.8001 21.3978 54.4501C21.293 53.9676 21.1354 53.4981 20.9278 53.0501C20.6778 52.5301 20.2778 51.9301 19.7778 51.9001C19.6518 51.8966 19.5262 51.917 19.4078 51.9601C19.3384 51.9836 19.2714 52.0137 19.2078 52.0501C19.2078 52.1001 19.1278 52.1101 19.0678 52.1701C18.8469 52.4129 18.6859 52.704 18.5978 53.0201C18.479 53.3767 18.4018 53.7458 18.3678 54.1201C18.3282 54.4891 18.3282 54.8612 18.3678 55.2301C18.4278 55.6201 18.4478 56.0201 18.5178 56.3601L18.7078 57.3601C18.7878 57.6701 18.8478 57.9501 18.9078 58.2001C18.9678 58.4501 19.0378 58.6601 19.0778 58.8401C19.1878 59.2001 19.2378 59.4001 19.2378 59.4001C19.1387 59.2386 19.0485 59.0716 18.9678 58.9001C18.8978 58.7401 18.7778 58.5501 18.6878 58.3101C18.5978 58.0701 18.4678 57.8001 18.3578 57.5001C18.2478 57.2001 18.1578 56.8501 18.0478 56.5001C17.9378 56.1501 17.8878 55.7701 17.8078 55.3701C17.7529 54.9285 17.7529 54.4818 17.8078 54.0401C17.8377 53.5917 17.9217 53.1485 18.0578 52.7201C18.1883 52.2934 18.4219 51.9053 18.7378 51.5901C18.8224 51.5092 18.9164 51.4387 19.0178 51.3801L19.2878 51.2701C19.4858 51.2303 19.6898 51.2303 19.8878 51.2701C20.0928 51.3073 20.2876 51.387 20.4599 51.5041C20.6321 51.6213 20.7779 51.7732 20.8878 51.9501C21.0983 52.2554 21.257 52.5933 21.3578 52.9501C21.5101 53.4574 21.6007 53.9812 21.6278 54.5101C21.5992 54.6826 21.5592 54.853 21.5078 55.0201Z" fill="#F2A57F"/>
<path d="M21.5074 55.0203C21.5074 55.0203 21.6874 54.6003 20.3974 54.5103C20.3974 54.5103 18.9474 54.7703 19.7974 56.7103C19.9883 57.1264 20.1325 57.5624 20.2274 58.0103C20.3574 58.6603 20.1274 59.5403 20.4774 60.1103C20.9274 60.8603 22.0674 60.4303 22.1374 59.5803C22.0176 58.7712 21.698 58.0047 21.2074 57.3503C20.955 56.9954 20.8457 56.5584 20.9013 56.1265C20.9569 55.6946 21.1734 55.2996 21.5074 55.0203Z" fill="#F2A57F"/>
<path d="M22.1382 59.5L22.2383 59.6C22.3199 59.713 22.384 59.8378 22.4283 59.97C22.4599 60.057 22.48 60.1478 22.4883 60.24C22.5036 60.3461 22.5036 60.4539 22.4883 60.56C22.4883 60.67 22.4883 60.79 22.4883 60.91C22.4883 61.03 22.4182 61.12 22.3782 61.23C22.3404 61.3357 22.2901 61.4364 22.2282 61.53C22.1703 61.6078 22.1068 61.6814 22.0382 61.75C21.9419 61.883 21.8051 61.9813 21.6483 62.03C21.5083 62.0997 21.3546 62.1373 21.1982 62.14C21.2569 61.9785 21.3271 61.8215 21.4082 61.67C21.4375 61.6058 21.4744 61.5453 21.5182 61.49C21.5422 61.4176 21.5723 61.3473 21.6082 61.28C21.6355 61.2073 21.669 61.137 21.7083 61.07C21.7462 61.0037 21.7764 60.9332 21.7982 60.86C21.8631 60.7223 21.9133 60.5782 21.9482 60.43C21.9728 60.3614 21.9929 60.2912 22.0082 60.22C22.0082 60.14 22.0082 60.07 22.0582 60.01C22.1082 59.79 22.1382 59.5 22.1382 59.5Z" fill="#F2A57F"/>
<path d="M43.9275 14.1602H43.3074C27.6474 14.3002 18.8474 18.7602 21.2574 47.3002L23.9475 70.0302C24.2217 71.4428 24.8147 72.7742 25.6811 73.9231C26.5475 75.072 27.6647 76.0081 28.9475 76.6602L37.4475 82.9702C37.4475 82.9702 41.4474 84.7602 43.5874 84.5802C45.6774 84.7602 49.7174 82.9602 49.7174 82.9602L58.2275 76.6602C59.5102 76.0081 60.6274 75.072 61.4938 73.9231C62.3603 72.7742 62.9532 71.4428 63.2275 70.0302L66.1174 47.7902C68.5274 19.2802 59.5775 14.3002 43.9275 14.1602Z" fill="#F4B88E"/>
<path d="M62.3283 56.0702C61.7783 58.4902 61.3883 62.3602 59.8183 64.4302C59.2816 65.1396 58.5921 65.7191 57.8011 66.1259C57.01 66.5327 56.1375 66.7563 55.2483 66.7802C53.9958 66.8338 52.7413 66.7466 51.5083 66.5202C50.5735 66.2239 49.6174 65.9999 48.6483 65.8502C47.6469 65.8602 46.6702 66.1626 45.8383 66.7202C45.3016 67.0039 44.7094 67.167 44.1031 67.1981C43.4969 67.2291 42.8912 67.1275 42.3283 66.9002C40.5895 66.1837 38.7376 65.7809 36.8583 65.7102C34.7083 65.7802 32.2283 66.3602 30.1183 65.7102C27.8483 65.0102 26.6783 63.0502 25.7883 60.9702C25.3083 59.8602 24.9683 57.2202 24.6283 56.0702C24.2083 54.6302 23.5483 55.6202 22.2383 55.6002L23.9483 71.6502C24.2225 73.0628 24.8155 74.3942 25.6819 75.5431C26.5484 76.692 27.6655 77.6281 28.9483 78.2802L37.4483 84.5802C37.4483 84.5802 41.4483 86.3802 43.5883 86.2002C45.6783 86.3802 49.7183 84.5802 49.7183 84.5802L58.2283 78.2802C59.5106 77.6275 60.6274 76.6912 61.4937 75.5424C62.3601 74.3936 62.9533 73.0625 63.2283 71.6502L65.1083 55.3202C63.6883 55.2902 62.7583 54.3802 62.3283 56.0702Z" fill="#472009"/>
<path d="M32.0782 49.1698C32.0782 50.6498 32.9182 51.8498 33.9382 51.8398C34.9582 51.8298 35.7782 50.6298 35.7682 49.1398C35.7582 47.6498 34.9282 46.4598 33.9082 46.4698C32.8882 46.4798 32.0682 47.6798 32.0782 49.1698Z" fill="#2F1807"/>
<path d="M33.1877 48.3103C33.189 48.4148 33.1695 48.5186 33.1304 48.6156C33.0913 48.7127 33.0333 48.8009 32.9598 48.8753C32.8863 48.9498 32.7988 49.0089 32.7023 49.0492C32.6058 49.0895 32.5023 49.1103 32.3977 49.1103C32.1855 49.1103 31.982 49.026 31.832 48.8759C31.6819 48.7259 31.5977 48.5224 31.5977 48.3103C31.5977 48.0981 31.6819 47.8946 31.832 47.7446C31.982 47.5945 32.1855 47.5103 32.3977 47.5103C32.5023 47.5102 32.6058 47.531 32.7023 47.5713C32.7988 47.6117 32.8863 47.6707 32.9598 47.7452C33.0333 47.8196 33.0913 47.9079 33.1304 48.0049C33.1695 48.1019 33.189 48.2057 33.1877 48.3103Z" fill="white"/>
<path d="M55.2875 49.1698C55.2875 50.6498 54.4475 51.8498 53.4275 51.8398C52.4075 51.8298 51.5975 50.6298 51.6075 49.1398C51.6175 47.6498 52.4475 46.4598 53.4675 46.4698C54.4875 46.4798 55.2975 47.6798 55.2875 49.1698Z" fill="#2F1807"/>
<path d="M54.1777 48.3103C54.1777 48.4685 54.2246 48.6232 54.3125 48.7547C54.4004 48.8863 54.5254 48.9888 54.6716 49.0494C54.8178 49.1099 54.9786 49.1257 55.1338 49.0949C55.289 49.064 55.4315 48.9878 55.5434 48.8759C55.6553 48.764 55.7315 48.6215 55.7624 48.4663C55.7932 48.3111 55.7774 48.1503 55.7168 48.0041C55.6563 47.8579 55.5537 47.733 55.4222 47.6451C55.2906 47.5572 55.1359 47.5103 54.9777 47.5103C54.8727 47.5103 54.7686 47.5309 54.6716 47.5712C54.5745 47.6114 54.4863 47.6703 54.412 47.7446C54.3378 47.8189 54.2788 47.907 54.2386 48.0041C54.1984 48.1012 54.1777 48.2052 54.1777 48.3103Z" fill="white"/>
<path d="M46.3982 63.61C45.9654 64.0251 45.4648 64.3633 44.9182 64.61C44.3586 64.8661 43.7606 65.0283 43.1482 65.0899C42.8333 65.1317 42.5157 65.1485 42.1982 65.14C41.8616 65.1207 41.5271 65.0738 41.1982 64.9999C40.8783 64.9383 40.5664 64.8411 40.2682 64.71C39.9656 64.5903 39.6715 64.4499 39.3882 64.2899L39.0182 64.0999L38.9382 63.49C38.9009 63.2314 38.8775 62.971 38.8682 62.71C38.8682 62.46 38.8682 62.21 38.8682 61.96C38.8939 61.4614 38.9642 60.966 39.0782 60.4799C39.1872 59.9864 39.3516 59.5067 39.5682 59.05C39.7888 58.5619 40.0821 58.1101 40.4382 57.71C40.633 58.1964 40.7739 58.7028 40.8582 59.2199C40.9465 59.696 41.0065 60.1768 41.0382 60.6599C41.0382 61.1299 41.0382 61.5899 41.0382 62.0599V62.7499C41.0382 62.9799 41.0382 63.22 40.9682 63.42L40.5182 62.6199C40.7182 62.7399 40.8982 62.9099 41.1082 63.0099C41.3107 63.1336 41.5212 63.2439 41.7382 63.3399C41.9592 63.438 42.1863 63.5215 42.4182 63.5899C42.6582 63.6399 42.8982 63.7299 43.1482 63.7599C43.403 63.8019 43.6602 63.8286 43.9182 63.8399C44.1846 63.855 44.4517 63.855 44.7182 63.8399C45.2832 63.8064 45.8449 63.7295 46.3982 63.61Z" fill="#EBA17D"/>
<path d="M37.7577 43.6903C37.6855 44.0105 37.4949 44.2915 37.2241 44.477C36.9533 44.6625 36.6224 44.7387 36.2977 44.6903C33.8036 44.2278 31.2311 44.4419 28.8477 45.3103C28.5392 45.4015 28.2081 45.3777 27.9158 45.2435C27.6234 45.1093 27.3896 44.8736 27.2577 44.5803C27.179 44.4312 27.1331 44.267 27.1231 44.0987C27.1132 43.9304 27.1395 43.762 27.2001 43.6047C27.2608 43.4474 27.3544 43.3049 27.4747 43.1869C27.595 43.0688 27.7393 42.9779 27.8977 42.9203C30.703 41.8844 33.7337 41.6151 36.6777 42.1403C36.852 42.1678 37.0189 42.2303 37.1684 42.324C37.3179 42.4176 37.4469 42.5405 37.5478 42.6853C37.6487 42.83 37.7192 42.9936 37.7553 43.1663C37.7914 43.339 37.7922 43.5172 37.7577 43.6903Z" fill="#472009"/>
<path d="M48.8778 43.6899C48.95 44.0101 49.1406 44.2911 49.4114 44.4766C49.6822 44.6621 50.0132 44.7383 50.3378 44.6899C52.832 44.2274 55.4045 44.4415 57.7878 45.3099C58.0963 45.401 58.4274 45.3773 58.7198 45.2431C59.0121 45.1089 59.2459 44.8732 59.3778 44.5799C59.4563 44.4302 59.5018 44.2653 59.5111 44.0965C59.5204 43.9278 59.4932 43.759 59.4316 43.6015C59.37 43.4441 59.2753 43.3018 59.1538 43.1842C59.0324 43.0666 58.8871 42.9764 58.7278 42.9199C55.926 41.8839 52.8985 41.6146 49.9579 42.1399C49.7826 42.1673 49.6147 42.2301 49.4644 42.3244C49.3141 42.4187 49.1845 42.5425 49.0835 42.6884C48.9825 42.8343 48.9122 42.9992 48.8769 43.173C48.8415 43.3469 48.8418 43.5261 48.8778 43.6999V43.6899Z" fill="#472009"/>
<path d="M44.4578 73.6299C43.7336 73.7932 42.9821 73.7932 42.2578 73.6299" stroke="#E89780" stroke-linecap="round" stroke-linejoin="round"/>
<path d="M38.3877 69.0698L39.6677 71.5798C39.6677 71.5798 45.3877 74.7998 49.4277 69.1998C45.7481 69.3598 42.0625 69.3164 38.3877 69.0698Z" fill="white"/>
<path d="M32.5478 20.72C32.5478 20.72 38.3878 27.8 51.6078 29.66C51.6078 29.66 65.0278 34.3 64.8478 41.87L62.4778 55.6L65.1678 55.32C65.1678 55.32 65.2378 49.79 68.1678 49.71C68.1678 49.71 70.8178 38.6 70.7778 36.71C70.7378 34.82 67.0378 15.98 67.0378 15.98L52.6378 5.70999C52.6378 5.70999 37.0778 3.43 29.8478 0C29.8478 0 31.4978 4.37999 33.9078 5.70999C33.9078 5.70999 24.9078 6.70999 24.0378 6.46999C23.1678 6.22999 25.2778 11.22 25.2778 11.22L17.7578 22.79L19.2278 49.68C19.2278 49.68 21.5678 49.91 22.2778 55.57H24.4778L24.0978 38.31C24.0978 38.31 27.1478 27.66 32.5478 20.72Z" fill="#472009"/>
<path d="M31.9478 20.0998C29.265 17.5454 26.9947 14.5903 25.2178 11.3398L17.7578 22.7898V22.8498C20.2278 26.8498 22.7578 30.7898 25.3078 34.6698C26.6778 30.9398 29.1678 25.0698 32.5778 20.6698C33.2904 21.4693 34.0772 22.1992 34.9278 22.8498C33.8778 21.9998 32.8978 21.0598 31.9478 20.0998Z" fill="#341000"/>
<path d="M43.5275 103.19L41.7475 94.0801L32.3175 88.3701L30.9375 94.1101L43.5275 103.19Z" fill="#717EBA"/>
<path d="M43.5273 103.19L45.3174 94.0801L54.7473 88.3701L56.1273 94.1101L43.5273 103.19Z" fill="#717EBA"/>
<path d="M48.0481 95.3101H39.0481C38.493 95.6416 38.0724 96.1581 37.8602 96.769C37.6481 97.3798 37.658 98.0458 37.8881 98.6501L40.7581 103.19H46.3381L49.2081 98.6501C49.4383 98.0458 49.4482 97.3798 49.236 96.769C49.0239 96.1581 48.6033 95.6416 48.0481 95.3101Z" fill="#6A54A1"/>
<g style="mix-blend-mode:multiply">
<path d="M48.6574 95.79C48.843 96.683 48.7807 97.6098 48.4774 98.47C48.2131 99.3937 47.7003 100.227 46.995 100.88C46.2897 101.532 45.4189 101.978 44.4774 102.17C43.6272 102.377 42.7303 102.255 41.9663 101.828C41.2023 101.402 40.6277 100.702 40.3574 99.87C39.8774 98.27 39.6174 96.46 40.6374 95.27H39.0374C38.4822 95.6015 38.0616 96.1181 37.8495 96.7289C37.6373 97.3397 37.6472 98.0058 37.8774 98.61L40.7574 103.19H46.3374L49.2074 98.65C49.4201 98.1744 49.4814 97.645 49.383 97.1334C49.2846 96.6218 49.0313 96.1528 48.6574 95.79Z" fill="#6A54A1"/>
</g>
<path d="M40.7382 103.19L37.6582 119.32H49.4182L46.3182 103.19H40.7382Z" fill="#6A54A1"/>
<path d="M41.7477 94.0801L37.2877 102.25L26.3877 94.8401L32.3177 88.3701L41.7477 94.0801Z" fill="#86B4DB"/>
<path d="M45.3174 94.0801L49.7774 102.25L60.6774 94.8401L54.7474 88.3701L45.3174 94.0801Z" fill="#86B4DB"/>
</svg>
