<svg width="24" height="23" viewBox="0 0 24 23" fill="none" xmlns="http://www.w3.org/2000/svg">
<path d="M10.2578 5.08333C10.2578 4.075 9.39115 3.25 8.33189 3.25C7.27263 3.25 6.40596 4.075 6.40596 5.08333C6.40596 6.09166 7.27263 6.91665 8.33189 6.91665C9.39115 6.91665 10.2578 6.09166 10.2578 5.08333Z" fill="white"/>
<path d="M10.2578 17.9166C10.2578 16.9082 9.39115 16.0833 8.33189 16.0833C7.27263 16.0833 6.40596 16.9082 6.40596 17.9166C6.40596 18.9249 7.27263 19.7499 8.33189 19.7499C9.39115 19.7499 10.2578 18.9249 10.2578 17.9166Z" fill="white"/>
<path d="M10.2578 11.5001C10.2578 10.4917 9.39115 9.66675 8.33189 9.66675C7.27263 9.66675 6.40596 10.4917 6.40596 11.5001C6.40596 12.5084 7.27263 13.3334 8.33189 13.3334C9.39115 13.3334 10.2578 12.5084 10.2578 11.5001Z" fill="white"/>
<path d="M17.9629 5.08333C17.9629 4.075 17.0962 3.25 16.037 3.25C14.9777 3.25 14.111 4.075 14.111 5.08333C14.111 6.09166 14.9777 6.91665 16.037 6.91665C17.0962 6.91665 17.9629 6.09166 17.9629 5.08333Z" fill="white"/>
<path d="M17.9629 17.9166C17.9629 16.9082 17.0962 16.0833 16.037 16.0833C14.9777 16.0833 14.111 16.9082 14.111 17.9166C14.111 18.9249 14.9777 19.7499 16.037 19.7499C17.0962 19.7499 17.9629 18.9249 17.9629 17.9166Z" fill="white"/>
<path d="M17.9629 11.5001C17.9629 10.4917 17.0962 9.66675 16.037 9.66675C14.9777 9.66675 14.111 10.4917 14.111 11.5001C14.111 12.5084 14.9777 13.3334 16.037 13.3334C17.0962 13.3334 17.9629 12.5084 17.9629 11.5001Z" fill="white"/>
</svg>
