<svg width="95" height="99" viewBox="0 0 95 99" fill="none" xmlns="http://www.w3.org/2000/svg">
<g opacity="0.66">
<g opacity="0.66">
<g opacity="0.66">
<path opacity="0.66" d="M80.013 43.5735H77.9689C77.5568 43.5727 77.1617 43.4069 76.8703 43.1124C76.5789 42.8179 76.4148 42.4188 76.4141 42.0023V39.6787C76.4134 39.465 76.348 39.2566 76.2268 39.0815C76.1055 38.9064 75.9342 38.773 75.7357 38.6991C75.4942 38.6096 75.2541 38.5087 75.0212 38.3998C74.8281 38.3087 74.612 38.2794 74.402 38.3157C74.1919 38.3521 73.9978 38.4525 73.8457 38.6034L72.2186 40.2476C71.9267 40.5425 71.5308 40.7082 71.1181 40.7082C70.7053 40.7082 70.3095 40.5425 70.0176 40.2476L68.5712 38.7861C68.2798 38.4909 68.1161 38.0909 68.1161 37.674C68.1161 37.257 68.2798 36.8571 68.5712 36.5619L70.1984 34.9176C70.3477 34.7639 70.447 34.5678 70.483 34.3555C70.5189 34.1432 70.4897 33.9248 70.3994 33.7297C70.2909 33.4922 70.1911 33.2496 70.1036 33.0073C70.0305 32.8068 69.8983 32.6336 69.725 32.5111C69.5517 32.3885 69.3454 32.3225 69.1338 32.3218H66.8349C66.4228 32.321 66.0278 32.1552 65.7364 31.8607C65.445 31.5662 65.2809 31.1671 65.28 30.7506V28.6851C65.2809 28.2686 65.445 27.8695 65.7364 27.575C66.0278 27.2805 66.4228 27.1147 66.8349 27.1139H69.1338C69.3454 27.1132 69.5517 27.0472 69.725 26.9247C69.8984 26.8022 70.0305 26.629 70.1036 26.4284C70.1915 26.1858 70.2913 25.9428 70.3994 25.7063C70.4897 25.5112 70.5188 25.2929 70.4829 25.0806C70.447 24.8683 70.3477 24.6721 70.1984 24.5184L68.5712 22.8742C68.2798 22.5791 68.1161 22.1792 68.1161 21.7623C68.1161 21.3454 68.2798 20.9455 68.5712 20.6504L70.0176 19.1888C70.3096 18.8942 70.7054 18.7287 71.1181 18.7287C71.5307 18.7287 71.9265 18.8942 72.2186 19.1888L73.8457 20.8331C73.9978 20.984 74.1918 21.0844 74.4019 21.1208C74.612 21.1572 74.8281 21.1278 75.0212 21.0366C75.2559 20.927 75.4964 20.8261 75.7361 20.7373C75.9346 20.6634 76.106 20.5299 76.2273 20.3548C76.3485 20.1796 76.4138 19.9711 76.4144 19.7573V17.4341C76.4152 17.0177 76.5793 16.6185 76.8707 16.324C77.1621 16.0295 77.5571 15.8637 77.9693 15.8629H80.013C80.4251 15.8638 80.8201 16.0296 81.1115 16.3241C81.4029 16.6186 81.5669 17.0177 81.5678 17.4341V19.7573C81.5684 19.9711 81.6337 20.1796 81.755 20.3548C81.8762 20.5299 82.0476 20.6634 82.2462 20.7373C82.4855 20.8261 82.726 20.927 82.9607 21.0362C83.1537 21.1275 83.3698 21.157 83.5799 21.1207C83.79 21.0844 83.9841 20.984 84.1362 20.8331L85.7633 19.1888C86.0554 18.8942 86.4512 18.7287 86.8638 18.7287C87.2765 18.7287 87.6723 18.8942 87.9643 19.1888L89.4107 20.6504C89.7019 20.9456 89.8655 21.3454 89.8655 21.7623C89.8655 22.1791 89.7019 22.579 89.4107 22.8742L87.7835 24.5184C87.634 24.672 87.5346 24.8682 87.4986 25.0805C87.4626 25.2928 87.4917 25.5112 87.5821 25.7063C87.6906 25.9431 87.79 26.1861 87.8779 26.4287C87.9511 26.6293 88.0832 26.8025 88.2565 26.925C88.4299 27.0475 88.6361 27.1136 88.8477 27.1142H91.1467C91.5588 27.1151 91.9537 27.2809 92.2451 27.5754C92.5366 27.8698 92.7006 28.269 92.7015 28.6854V30.7503C92.7006 31.1667 92.5366 31.5659 92.2451 31.8603C91.9537 32.1548 91.5588 32.3206 91.1467 32.3215H88.8477C88.6362 32.3222 88.4299 32.3882 88.2566 32.5108C88.0832 32.6333 87.9511 32.8064 87.8779 33.007C87.79 33.2492 87.6906 33.4918 87.5821 33.729C87.4917 33.9241 87.4625 34.1424 87.4984 34.3548C87.5343 34.5671 87.6337 34.7633 87.7832 34.9169L89.4103 36.5612C89.7017 36.8564 89.8653 37.2563 89.8653 37.6733C89.8653 38.0902 89.7017 38.4901 89.4103 38.7853L87.964 40.2469C87.672 40.5418 87.2762 40.7074 86.8635 40.7074C86.4507 40.7074 86.0549 40.5418 85.763 40.2469L84.1358 38.6026C83.9837 38.4517 83.7897 38.3514 83.5796 38.315C83.3695 38.2786 83.1534 38.308 82.9603 38.3991C82.7274 38.5087 82.487 38.6088 82.2458 38.6984C82.0473 38.7722 81.876 38.9057 81.7547 39.0808C81.6335 39.2559 81.5681 39.4643 81.5674 39.678V42.0015C81.5668 42.4181 81.4028 42.8173 81.1115 43.1119C80.8201 43.4066 80.4251 43.5725 80.013 43.5735ZM74.5761 37.7706C74.8053 37.77 75.0319 37.8199 75.24 37.9168C75.4598 38.0195 75.6869 38.1148 75.9155 38.1992C76.2144 38.3108 76.4724 38.512 76.655 38.7759C76.8376 39.0398 76.9359 39.3538 76.9369 39.6758V41.9994C76.9373 42.2759 77.0462 42.541 77.2397 42.7366C77.4332 42.9321 77.6956 43.0422 77.9693 43.0426H80.013C80.2867 43.0423 80.5491 42.9323 80.7426 42.7367C80.9362 42.5411 81.045 42.2759 81.0453 41.9994V39.6758C81.0463 39.3538 81.1448 39.0397 81.3274 38.7758C81.51 38.5119 81.7682 38.3107 82.0672 38.1992C82.2953 38.1148 82.5224 38.0195 82.7419 37.9168C83.0324 37.7802 83.3572 37.7367 83.6729 37.792C83.9885 37.8473 84.2799 37.9989 84.5079 38.2263L86.135 39.8706C86.3289 40.0659 86.5915 40.1756 86.8653 40.1756C87.139 40.1756 87.4016 40.0659 87.5955 39.8706L89.0419 38.409C89.2352 38.2131 89.3437 37.9477 89.3437 37.6711C89.3437 37.3944 89.2352 37.129 89.0419 36.9331L87.4147 35.2889C87.1896 35.0585 87.0397 34.764 86.985 34.445C86.9303 34.126 86.9735 33.7977 87.1088 33.5043C87.2108 33.2806 87.3051 33.0512 87.3883 32.8228C87.4986 32.5206 87.6977 32.2598 87.9588 32.0752C88.22 31.8906 88.5308 31.7912 88.8495 31.7902H91.1485C91.4222 31.7899 91.6847 31.6799 91.8783 31.4843C92.0719 31.2888 92.1808 31.0236 92.1812 30.747V28.6814C92.1808 28.4048 92.0719 28.1396 91.8783 27.944C91.6847 27.7485 91.4222 27.6385 91.1485 27.6382H88.8495C88.5308 27.6372 88.2201 27.5378 87.9589 27.3533C87.6978 27.1688 87.4987 26.908 87.3883 26.606C87.3051 26.3765 87.2108 26.147 87.1088 25.9238C86.9735 25.6303 86.9303 25.302 86.985 24.983C87.0397 24.664 87.1896 24.3696 87.4147 24.1392L89.0419 22.4949C89.2351 22.299 89.3436 22.0337 89.3436 21.7571C89.3436 21.4806 89.2351 21.2153 89.0419 21.0194L87.5955 19.5578C87.4016 19.3625 87.139 19.2528 86.8653 19.2528C86.5915 19.2528 86.3289 19.3625 86.135 19.5578L84.5079 21.2021C84.2798 21.4294 83.9885 21.5809 83.6728 21.6362C83.3572 21.6915 83.0324 21.6481 82.7419 21.5116C82.5202 21.4082 82.2932 21.3128 82.0672 21.2292C81.7681 21.1177 81.51 20.9164 81.3273 20.6524C81.1447 20.3884 81.0463 20.0743 81.0453 19.7522V17.429C81.0439 17.1532 80.9345 16.8892 80.7411 16.6945C80.5477 16.4999 80.2859 16.3905 80.013 16.3902H77.9689C77.6952 16.3905 77.4328 16.5005 77.2393 16.6961C77.0457 16.8917 76.9369 17.1568 76.9366 17.4334V19.7566C76.9357 20.0787 76.8373 20.3928 76.6547 20.6567C76.4722 20.9207 76.2141 21.122 75.9151 21.2335C75.6887 21.3172 75.4616 21.4126 75.2396 21.516C74.9492 21.6526 74.6243 21.6962 74.3086 21.6409C73.993 21.5855 73.7016 21.434 73.4736 21.2065L71.8465 19.5622C71.6526 19.3669 71.39 19.2572 71.1163 19.2572C70.8425 19.2572 70.5799 19.3669 70.386 19.5622L68.9397 21.0238C68.7465 21.2197 68.638 21.485 68.638 21.7615C68.638 22.0381 68.7465 22.3034 68.9397 22.4993L70.5668 24.1436C70.7917 24.3741 70.9416 24.6685 70.9962 24.9875C71.0509 25.3064 71.0078 25.6346 70.8727 25.9281C70.7708 26.1514 70.6767 26.3809 70.5932 26.6103C70.4829 26.9125 70.2838 27.1733 70.0227 27.3578C69.7615 27.5423 69.4507 27.6417 69.132 27.6426H66.833C66.5593 27.6429 66.2969 27.7529 66.1033 27.9484C65.9097 28.144 65.8007 28.4092 65.8004 28.6858V30.7503C65.8007 31.0269 65.9097 31.2921 66.1033 31.4876C66.2969 31.6832 66.5593 31.7932 66.833 31.7935H69.132C69.4507 31.7944 69.7616 31.8938 70.0227 32.0784C70.2839 32.263 70.483 32.5239 70.5932 32.8261C70.6764 33.0545 70.7704 33.2843 70.8731 33.5083C71.008 33.8018 71.051 34.13 70.9963 34.4488C70.9416 34.7677 70.7917 35.0621 70.5668 35.2925L68.9397 36.9368C68.7464 37.1327 68.6378 37.3981 68.6378 37.6747C68.6378 37.9514 68.7464 38.2167 68.9397 38.4126L70.386 39.8742C70.5799 40.0696 70.8425 40.1793 71.1163 40.1793C71.39 40.1793 71.6526 40.0696 71.8465 39.8742L73.4736 38.2299C73.6187 38.0839 73.7907 37.9682 73.98 37.8894C74.1693 37.8106 74.3721 37.7702 74.5768 37.7706H74.5761ZM78.9911 36.9803C77.5695 36.9803 76.1799 36.5543 74.9979 35.7562C73.8159 34.9581 72.8946 33.8237 72.3506 32.4965C71.8066 31.1693 71.6642 29.7089 71.9416 28.2999C72.2189 26.891 72.9035 25.5968 73.9087 24.581C74.9139 23.5652 76.1946 22.8734 77.5889 22.5932C78.9832 22.3129 80.4284 22.4567 81.7417 23.0065C83.0551 23.5562 84.1777 24.4872 84.9675 25.6816C85.7572 26.8761 86.1788 28.2804 86.1788 29.7169C86.1767 31.6425 85.4188 33.4886 84.0715 34.8503C82.7242 36.2119 80.8974 36.978 78.9918 36.9803H78.9911ZM78.9911 22.9827C77.6731 22.9827 76.3847 23.3776 75.2888 24.1176C74.1929 24.8576 73.3387 25.9093 72.8343 27.1399C72.3299 28.3704 72.1979 29.7244 72.4551 31.0307C72.7122 32.337 73.3469 33.537 74.2789 34.4788C75.2109 35.4206 76.3983 36.0619 77.691 36.3218C78.9837 36.5816 80.3237 36.4483 81.5414 35.9386C82.7591 35.4289 83.7999 34.5657 84.5321 33.4583C85.2644 32.3508 85.6552 31.0488 85.6552 29.7169C85.6532 27.9317 84.9505 26.2201 83.7014 24.9576C82.4522 23.6951 80.7585 22.9849 78.9918 22.9827H78.9911Z" fill="white"/>
</g>
<g opacity="0.84">
<path opacity="0.84" d="M76.2084 81.3303H73.6585C73.3643 81.3301 73.0774 81.2386 72.8363 81.0683C72.5953 80.8979 72.4119 80.6568 72.3108 80.3777C72.2144 80.1131 72.108 79.8537 71.9916 79.5994C71.8655 79.3286 71.8249 79.0251 71.8753 78.7302C71.9257 78.4353 72.0646 78.1632 72.2732 77.9507L74.0765 76.1285C74.3456 75.8565 74.4969 75.4875 74.4969 75.1028C74.4969 74.7181 74.3456 74.3492 74.0765 74.0772L72.4736 72.4574C72.3403 72.3226 72.1821 72.2158 72.0079 72.1428C71.8338 72.0699 71.6471 72.0324 71.4586 72.0324C71.2701 72.0324 71.0834 72.0699 70.9093 72.1428C70.7351 72.2158 70.5769 72.3226 70.4436 72.4574L68.6404 74.2796C68.4301 74.4903 68.1609 74.6306 67.8691 74.6815C67.5773 74.7323 67.2771 74.6913 67.0092 74.5639C66.7576 74.4462 66.5007 74.3387 66.2387 74.2412C65.9625 74.1391 65.7239 73.9537 65.5554 73.7102C65.3868 73.4666 65.2962 73.1766 65.296 72.8794V70.3023C65.296 69.9175 65.1448 69.5486 64.8756 69.2765C64.6064 69.0045 64.2412 68.8516 63.8605 68.8516H61.5941C61.2133 68.8516 60.8482 69.0045 60.579 69.2765C60.3098 69.5486 60.1586 69.9175 60.1586 70.3023V72.8794C60.1583 73.1766 60.0678 73.4666 59.8992 73.7102C59.7306 73.9537 59.4921 74.1391 59.2159 74.2412C58.9539 74.3387 58.697 74.4462 58.4453 74.5639C58.1774 74.6913 57.8771 74.7324 57.5853 74.6815C57.2934 74.6306 57.0241 74.4903 56.8139 74.2796L55.0106 72.4574C54.7414 72.1854 54.3763 72.0326 53.9956 72.0326C53.6149 72.0326 53.2499 72.1854 52.9807 72.4574L51.3763 74.0772C51.1071 74.3492 50.9559 74.7181 50.9559 75.1028C50.9559 75.4875 51.1071 75.8565 51.3763 76.1285L53.1795 77.9507C53.3881 78.1632 53.527 78.4353 53.5774 78.7302C53.6277 79.0251 53.5872 79.3286 53.4612 79.5994C53.3445 79.8535 53.2381 80.1129 53.1419 80.3777C53.0409 80.6569 52.8575 80.898 52.6165 81.0683C52.3754 81.2387 52.0884 81.3301 51.7943 81.3303H49.2443C48.8636 81.3303 48.4985 81.4831 48.2293 81.7551C47.9601 82.0272 47.8088 82.3962 47.8088 82.7809V85.0701C47.8088 85.2606 47.846 85.4492 47.9181 85.6252C47.9903 85.8012 48.096 85.9611 48.2293 86.0958C48.3626 86.2305 48.5208 86.3374 48.695 86.4103C48.8692 86.4832 49.0558 86.5207 49.2443 86.5207H51.7943C52.0884 86.5208 52.3754 86.6123 52.6165 86.7827C52.8575 86.953 53.0409 87.1941 53.1419 87.4733C53.2383 87.7379 53.3448 87.9973 53.4612 88.2516C53.5872 88.5224 53.6278 88.8259 53.5774 89.1208C53.5271 89.4157 53.3881 89.6878 53.1795 89.9003L51.3763 91.724C51.1071 91.996 50.9559 92.3649 50.9559 92.7496C50.9559 93.1343 51.1071 93.5033 51.3763 93.7753L52.9792 95.3951C53.2484 95.6671 53.6135 95.8199 53.9942 95.8199C54.3749 95.8199 54.74 95.6671 55.0092 95.3951L56.8124 93.5729C57.0228 93.3624 57.2921 93.2222 57.5839 93.1713C57.8756 93.1204 58.1758 93.1612 58.4439 93.2882C58.6953 93.4059 58.9522 93.5134 59.2144 93.6109C59.4907 93.713 59.7292 93.8984 59.8978 94.1419C60.0664 94.3855 60.1569 94.6755 60.1571 94.9727V97.5498C60.1571 97.7403 60.1942 97.929 60.2664 98.105C60.3385 98.281 60.4443 98.4409 60.5776 98.5756C60.7109 98.7103 60.8691 98.8171 61.0433 98.89C61.2174 98.9629 61.4041 99.0005 61.5926 99.0005H63.8591C64.2398 99.0005 64.6049 98.8476 64.8741 98.5756C65.1433 98.3035 65.2946 97.9346 65.2946 97.5498V94.9723C65.2948 94.6751 65.3853 94.3851 65.5539 94.1416C65.7225 93.898 65.961 93.7126 66.2372 93.6105C66.4993 93.5131 66.7561 93.4055 67.0078 93.2879C67.2758 93.1606 67.5759 93.1197 67.8677 93.1706C68.1595 93.2215 68.4287 93.3618 68.6389 93.5725L70.4422 95.3947C70.5754 95.5295 70.7337 95.6363 70.9078 95.7092C71.082 95.7822 71.2686 95.8197 71.4571 95.8197C71.6456 95.8197 71.8323 95.7822 72.0065 95.7092C72.1806 95.6363 72.3388 95.5295 72.4721 95.3947L74.075 93.7749C74.3442 93.5029 74.4954 93.134 74.4954 92.7493C74.4954 92.3646 74.3442 91.9956 74.075 91.7236L72.2718 89.9017C72.0632 89.6893 71.9243 89.4172 71.8739 89.1222C71.8235 88.8273 71.8641 88.5239 71.9901 88.2531C72.1066 87.999 72.213 87.7396 72.3094 87.4748C72.4104 87.1956 72.5939 86.9546 72.8349 86.7842C73.0759 86.6138 73.3629 86.5224 73.657 86.5222H76.207C76.3955 86.5222 76.5822 86.4847 76.7563 86.4118C76.9305 86.3389 77.0887 86.232 77.222 86.0973C77.3553 85.9626 77.4611 85.8027 77.5332 85.6267C77.6054 85.4507 77.6425 85.2621 77.6425 85.0716V82.7809C77.6425 82.3964 77.4914 82.0277 77.2225 81.7557C76.9536 81.4837 76.5889 81.3307 76.2084 81.3303ZM62.7273 91.6882C61.2082 91.6881 59.7232 91.2328 58.4602 90.3799C57.1971 89.527 56.2127 88.3148 55.6314 86.8965C55.0501 85.4783 54.898 83.9177 55.1944 82.4121C55.4908 80.9065 56.2223 79.5235 57.2965 78.438C58.3706 77.3525 59.7392 76.6133 61.2291 76.3138C62.719 76.0143 64.2633 76.168 65.6668 76.7554C67.0703 77.3429 68.2699 78.3376 69.1139 79.614C69.9579 80.8903 70.4085 82.391 70.4085 83.926C70.4086 84.9454 70.2099 85.9548 69.8239 86.8966C69.4379 87.8384 68.872 88.6941 68.1587 89.4149C67.4454 90.1357 66.5986 90.7075 65.6666 91.0975C64.7346 91.4875 63.7357 91.6882 62.7269 91.6882H62.7273Z" fill="white"/>
</g>
<g opacity="0.66">
<path opacity="0.66" d="M36.3277 96.7616H34.6109C34.2532 96.7611 33.9102 96.6173 33.6573 96.3616C33.4044 96.106 33.2622 95.7594 33.2618 95.3979V93.4463C33.2612 93.2755 33.2089 93.1088 33.112 92.9688C33.015 92.8288 32.8781 92.7221 32.7194 92.6629C32.5169 92.5898 32.3137 92.5033 32.1163 92.4104C31.9618 92.3376 31.7891 92.3141 31.6211 92.3432C31.4531 92.3722 31.2978 92.4524 31.1761 92.573L29.8101 93.9531C29.6848 94.0798 29.5361 94.1803 29.3725 94.2488C29.2088 94.3174 29.0334 94.3527 28.8562 94.3527C28.679 94.3527 28.5036 94.3174 28.3399 94.2488C28.1762 94.1803 28.0275 94.0798 27.9023 93.9531L26.6877 92.728C26.5624 92.6014 26.463 92.4511 26.3951 92.2857C26.3273 92.1202 26.2923 91.9429 26.2923 91.7639C26.2923 91.5848 26.3273 91.4075 26.3951 91.2421C26.463 91.0766 26.5624 90.9263 26.6877 90.7998L28.0535 89.42C28.1729 89.2971 28.2524 89.1403 28.2811 88.9705C28.3099 88.8007 28.2866 88.626 28.2144 88.47C28.1232 88.2709 28.0394 88.0659 27.9641 87.8602C27.9057 87.6998 27.8001 87.5614 27.6615 87.4634C27.5229 87.3654 27.358 87.3126 27.1889 87.3121H25.2577C24.8999 87.3117 24.5569 87.1679 24.3039 86.9122C24.0509 86.6566 23.9086 86.31 23.9082 85.9484V84.2135C23.9087 83.852 24.051 83.5055 24.304 83.2499C24.557 82.9943 24.8999 82.8506 25.2577 82.8502H27.1889C27.358 82.8497 27.5229 82.7968 27.6615 82.6989C27.8001 82.6009 27.9057 82.4625 27.9641 82.3021C28.0394 82.0949 28.1232 81.89 28.2144 81.6926C28.2866 81.5366 28.3098 81.362 28.2811 81.1922C28.2523 81.0224 28.1729 80.8655 28.0535 80.7426L26.6877 79.3621C26.5624 79.2356 26.463 79.0853 26.3951 78.9199C26.3273 78.7546 26.2924 78.5773 26.2924 78.3982C26.2924 78.2192 26.3273 78.0419 26.3951 77.8765C26.463 77.7111 26.5624 77.5609 26.6877 77.4343L27.9016 76.2073C28.1548 75.9521 28.4978 75.8089 28.8555 75.8089C29.2131 75.8089 29.5561 75.9521 29.8093 76.2073L31.1754 77.5878C31.297 77.7085 31.4523 77.7888 31.6203 77.8178C31.7884 77.8467 31.9612 77.8231 32.1156 77.75C32.3105 77.6583 32.5133 77.5739 32.7187 77.4975C32.8773 77.4384 33.0143 77.3317 33.1112 77.1916C33.2082 77.0516 33.2605 76.885 33.2611 76.7141V74.7622C33.2615 74.4007 33.4037 74.0542 33.6566 73.7986C33.9095 73.543 34.2525 73.3993 34.6102 73.3989H36.327C36.6847 73.3993 37.0276 73.543 37.2805 73.7986C37.5334 74.0542 37.6757 74.4007 37.6761 74.7622V76.7141C37.6767 76.885 37.729 77.0516 37.8259 77.1916C37.9228 77.3317 38.0598 77.4384 38.2185 77.4975C38.4238 77.5735 38.6267 77.6583 38.8216 77.75C38.976 77.823 39.1488 77.8466 39.3168 77.8176C39.4848 77.7886 39.64 77.7084 39.7617 77.5878L41.1274 76.2073C41.3807 75.9521 41.7237 75.8089 42.0813 75.8089C42.4389 75.8089 42.782 75.9521 43.0352 76.2073L44.2494 77.4343C44.5024 77.69 44.6445 78.0367 44.6445 78.3982C44.6445 78.7598 44.5024 79.1065 44.2494 79.3621L42.8837 80.7426C42.7643 80.8656 42.6849 81.0224 42.6562 81.1922C42.6274 81.362 42.6506 81.5366 42.7228 81.6926C42.8135 81.8896 42.8978 82.0946 42.973 82.3021C43.0315 82.4624 43.1371 82.6008 43.2756 82.6987C43.414 82.7967 43.5788 82.8495 43.7479 82.8502H45.6791C46.0368 82.8506 46.3798 82.9943 46.6328 83.2499C46.8858 83.5055 47.0281 83.852 47.0286 84.2135V85.9484C47.0282 86.31 46.8859 86.6566 46.6329 86.9122C46.3799 87.1679 46.0369 87.3117 45.6791 87.3121H43.7493C43.5803 87.3127 43.4155 87.3655 43.277 87.4635C43.1385 87.5615 43.0329 87.6999 42.9744 87.8602C42.9 88.0659 42.8153 88.2712 42.7242 88.47C42.652 88.626 42.6287 88.8007 42.6574 88.9705C42.6862 89.1403 42.7656 89.2971 42.8851 89.42L44.2509 90.7998C44.5038 91.0555 44.6459 91.4023 44.6459 91.7639C44.6459 92.1255 44.5038 92.4722 44.2509 92.728L43.0366 93.9546C42.9114 94.0813 42.7627 94.1817 42.599 94.2503C42.4354 94.3188 42.2599 94.3541 42.0828 94.3541C41.9056 94.3541 41.7302 94.3188 41.5665 94.2503C41.4028 94.1817 41.2541 94.0813 41.1289 93.9546L39.7632 92.5745C39.6414 92.454 39.4862 92.3739 39.3182 92.3448C39.1503 92.3158 38.9775 92.3392 38.823 92.4119C38.6245 92.5051 38.4217 92.5898 38.2195 92.6648C38.0609 92.7239 37.9239 92.8306 37.8269 92.9706C37.73 93.1106 37.6777 93.2773 37.6772 93.4482V95.3997C37.6763 95.761 37.5338 96.1071 37.2809 96.3624C37.0279 96.6176 36.6852 96.7612 36.3277 96.7616ZM31.7612 91.8024C31.9598 91.8026 32.1559 91.8463 32.3361 91.9307C32.5205 92.0173 32.7107 92.0966 32.8995 92.1664C33.1584 92.2631 33.382 92.4373 33.5403 92.6658C33.6986 92.8944 33.7841 93.1663 33.7854 93.4452V95.3968C33.7857 95.618 33.8727 95.83 34.0275 95.9864C34.1822 96.1427 34.392 96.2307 34.6109 96.231H36.3277C36.5466 96.2307 36.7564 96.1427 36.9111 95.9864C37.0659 95.83 37.1529 95.618 37.1532 95.3968V93.4452C37.1544 93.1663 37.2399 92.8943 37.3982 92.6658C37.5565 92.4372 37.7801 92.263 38.0391 92.1664C38.2279 92.0969 38.4173 92.0173 38.6028 91.9307C38.8546 91.8125 39.1361 91.7749 39.4096 91.8228C39.6832 91.8707 39.9357 92.002 40.1334 92.1989L41.4992 93.579C41.6563 93.7308 41.8654 93.8155 42.0828 93.8155C42.3002 93.8155 42.5092 93.7308 42.6664 93.579L43.8806 92.352C44.0353 92.1955 44.1223 91.9834 44.1223 91.7622C44.1223 91.541 44.0353 91.3289 43.8806 91.1725L42.5145 89.7924C42.3195 89.5927 42.1895 89.3375 42.1421 89.061C42.0946 88.7846 42.132 88.5001 42.2491 88.2457C42.3341 88.06 42.4129 87.8682 42.4823 87.6764C42.5778 87.4145 42.7502 87.1884 42.9763 87.0284C43.2025 86.8683 43.4717 86.7819 43.7479 86.7808H45.6791C45.898 86.7806 46.1079 86.6926 46.2626 86.5362C46.4174 86.3798 46.5044 86.1678 46.5046 85.9466V84.2117C46.5044 83.9905 46.4174 83.7784 46.2626 83.622C46.1079 83.4656 45.898 83.3777 45.6791 83.3775H43.7493C43.4733 83.3763 43.2042 83.29 42.978 83.1301C42.7519 82.9702 42.5794 82.7443 42.4838 82.4826C42.4136 82.289 42.3352 82.0975 42.2505 81.913C42.1335 81.6586 42.0961 81.3741 42.1436 81.0976C42.191 80.8212 42.3209 80.566 42.5159 80.3663L43.882 78.9858C44.0368 78.8294 44.1237 78.6172 44.1237 78.396C44.1237 78.1749 44.0368 77.9627 43.882 77.8063L42.6678 76.5793C42.5128 76.4233 42.303 76.3357 42.0842 76.3357C41.8654 76.3357 41.6556 76.4233 41.5006 76.5793L40.1349 77.9598C39.9372 78.1569 39.6846 78.2883 39.411 78.3363C39.1373 78.3842 38.8557 78.3464 38.6039 78.228C38.4231 78.1424 38.2322 78.0632 38.0406 77.9919C37.7815 77.8954 37.5578 77.7212 37.3995 77.4926C37.2412 77.264 37.1557 76.992 37.1547 76.713V74.7611C37.1545 74.5399 37.0674 74.3278 36.9127 74.1714C36.7579 74.015 36.548 73.9271 36.3292 73.9269H34.6123C34.3934 73.9271 34.1836 74.015 34.0288 74.1714C33.874 74.3278 33.787 74.5399 33.7868 74.7611V76.713C33.7857 76.992 33.7003 77.2639 33.5421 77.4925C33.3838 77.721 33.1602 77.8953 32.9013 77.9919C32.7093 78.0632 32.5198 78.1424 32.3376 78.228C32.0858 78.3464 31.8043 78.3841 31.5307 78.3362C31.2571 78.2883 31.0046 78.1569 30.807 77.9598L29.4409 76.5793C29.2859 76.4233 29.076 76.3357 28.8573 76.3357C28.6385 76.3357 28.4287 76.4233 28.2737 76.5793L27.0598 77.8063C26.9831 77.8837 26.9223 77.9756 26.8807 78.0768C26.8392 78.178 26.8178 78.2865 26.8178 78.396C26.8178 78.5056 26.8392 78.6141 26.8807 78.7153C26.9223 78.8164 26.9831 78.9084 27.0598 78.9858L28.4255 80.3663C28.6206 80.566 28.7505 80.8211 28.798 81.0976C28.8454 81.3741 28.8081 81.6586 28.6909 81.913C28.6063 82.0975 28.5279 82.2893 28.4574 82.483C28.3618 82.7447 28.1894 82.9707 27.9632 83.1306C27.737 83.2906 27.4679 83.3768 27.1918 83.3779H25.2605C25.0417 83.378 24.8318 83.466 24.677 83.6224C24.5223 83.7788 24.4352 83.9909 24.435 84.212V85.9469C24.4352 86.1681 24.5223 86.3802 24.677 86.5366C24.8318 86.693 25.0417 86.781 25.2605 86.7811H27.1918C27.4679 86.7822 27.7371 86.8686 27.9632 87.0286C28.1894 87.1886 28.3618 87.4146 28.4574 87.6764C28.5271 87.8686 28.6056 88.0604 28.6906 88.246C28.8078 88.5004 28.8451 88.7849 28.7977 89.0614C28.7503 89.3379 28.6203 89.5931 28.4252 89.7927L27.0595 91.1728C26.9827 91.2502 26.9219 91.3422 26.8804 91.4434C26.8389 91.5446 26.8175 91.653 26.8175 91.7626C26.8175 91.8721 26.8389 91.9806 26.8804 92.0818C26.9219 92.183 26.9827 92.2749 27.0595 92.3523L28.2733 93.5793C28.4305 93.731 28.6395 93.8157 28.8569 93.8157C29.0743 93.8157 29.2833 93.731 29.4405 93.5793L30.8066 92.1992C31.0602 91.9444 31.4036 91.8017 31.7612 91.8024ZM35.4697 91.2229C34.2672 91.2229 33.0917 90.8626 32.0919 90.1875C31.0921 89.5124 30.3128 88.5529 29.8527 87.4302C29.3925 86.3076 29.2721 85.0723 29.5067 83.8805C29.7413 82.6888 30.3203 81.5941 31.1706 80.7348C32.0209 79.8756 33.1042 79.2905 34.2836 79.0534C35.4629 78.8164 36.6853 78.938 37.7963 79.403C38.9072 79.868 39.8567 80.6555 40.5248 81.6658C41.1928 82.6762 41.5494 83.864 41.5494 85.0791C41.5476 86.7081 40.9064 88.2697 39.7666 89.4215C38.6267 90.5733 37.0813 91.2212 35.4693 91.2229H35.4697ZM35.4697 79.4645C34.3708 79.4646 33.2966 79.794 32.383 80.411C31.4694 81.0281 30.7574 81.905 30.3369 82.931C29.9165 83.957 29.8066 85.0859 30.0211 86.1749C30.2355 87.264 30.7647 88.2644 31.5418 89.0496C32.3189 89.8347 33.3089 90.3694 34.3867 90.586C35.4645 90.8026 36.5816 90.6913 37.5968 90.2663C38.612 89.8414 39.4797 89.1217 40.0902 88.1984C40.7007 87.2751 41.0266 86.1896 41.0266 85.0791C41.0249 83.5903 40.4389 82.1629 39.397 81.1103C38.3552 80.0576 36.9426 79.4655 35.4693 79.4641L35.4697 79.4645Z" fill="white"/>
</g>
</g>
</g>
<g opacity="0.81">
<path opacity="0.81" d="M91.8777 68.0596H88.4639C88.3945 68.0596 88.3279 68.0318 88.2788 67.9822C88.2297 67.9326 88.2021 67.8653 88.2021 67.7951C88.2021 67.7249 88.2297 67.6576 88.2788 67.608C88.3279 67.5584 88.3945 67.5305 88.4639 67.5305H91.8777C91.9471 67.5305 92.0137 67.5584 92.0628 67.608C92.1119 67.6576 92.1395 67.7249 92.1395 67.7951C92.1395 67.8653 92.1119 67.9326 92.0628 67.9822C92.0137 68.0318 91.9471 68.0596 91.8777 68.0596Z" fill="white"/>
<path opacity="0.81" d="M91.8777 73.743H88.4639C88.3945 73.743 88.3279 73.7151 88.2788 73.6655C88.2297 73.6159 88.2021 73.5486 88.2021 73.4784C88.2021 73.4083 88.2297 73.341 88.2788 73.2914C88.3279 73.2417 88.3945 73.2139 88.4639 73.2139H91.8777C91.9471 73.2139 92.0137 73.2417 92.0628 73.2914C92.1119 73.341 92.1395 73.4083 92.1395 73.4784C92.1395 73.5486 92.1119 73.6159 92.0628 73.6655C92.0137 73.7151 91.9471 73.743 91.8777 73.743Z" fill="white"/>
<g opacity="0.81">
<g opacity="0.81">
<g opacity="0.81">
<path opacity="0.81" d="M94.2903 79.4847H73.5351C73.3468 79.4846 73.1663 79.4089 73.0332 79.2743C72.9 79.1398 72.8251 78.9574 72.825 78.7671V61.2317C72.8252 61.0415 72.9002 60.8592 73.0333 60.7247C73.1664 60.5903 73.3469 60.5147 73.5351 60.5145H94.2903C94.4786 60.5146 94.6592 60.5901 94.7924 60.7246C94.9256 60.8591 95.0006 61.0415 95.0009 61.2317V78.7667C95.0008 78.9571 94.9259 79.1397 94.7927 79.2743C94.6594 79.409 94.4788 79.4847 94.2903 79.4847ZM73.5351 61.0439C73.4857 61.0439 73.4383 61.0637 73.4033 61.099C73.3683 61.1343 73.3486 61.1822 73.3485 61.2321V78.7671C73.3485 78.7919 73.3534 78.8164 73.3627 78.8393C73.3721 78.8621 73.3859 78.8829 73.4032 78.9004C73.4205 78.9179 73.4411 78.9318 73.4637 78.9413C73.4864 78.9508 73.5106 78.9557 73.5351 78.9557H94.2903C94.3398 78.9557 94.3873 78.9358 94.4223 78.9004C94.4573 78.8651 94.4769 78.8171 94.4769 78.7671V61.2317C94.4768 61.1818 94.4571 61.1339 94.4221 61.0987C94.3872 61.0634 94.3398 61.0436 94.2903 61.0436L73.5351 61.0439Z" fill="white"/>
<path opacity="0.66" d="M94.2903 79.4847H73.5351C73.3468 79.4846 73.1663 79.4089 73.0332 79.2743C72.9 79.1398 72.8251 78.9574 72.825 78.7671V61.2317C72.8252 61.0415 72.9002 60.8592 73.0333 60.7247C73.1664 60.5903 73.3469 60.5147 73.5351 60.5145H94.2903C94.4786 60.5146 94.6592 60.5901 94.7924 60.7246C94.9256 60.8591 95.0006 61.0415 95.0009 61.2317V78.7667C95.0008 78.9571 94.9259 79.1397 94.7927 79.2743C94.6594 79.409 94.4788 79.4847 94.2903 79.4847ZM73.5351 61.0439C73.4857 61.0439 73.4383 61.0637 73.4033 61.099C73.3683 61.1343 73.3486 61.1822 73.3485 61.2321V78.7671C73.3485 78.7919 73.3534 78.8164 73.3627 78.8393C73.3721 78.8621 73.3859 78.8829 73.4032 78.9004C73.4205 78.9179 73.4411 78.9318 73.4637 78.9413C73.4864 78.9508 73.5106 78.9557 73.5351 78.9557H94.2903C94.3398 78.9557 94.3873 78.9358 94.4223 78.9004C94.4573 78.8651 94.4769 78.8171 94.4769 78.7671V61.2317C94.4768 61.1818 94.4571 61.1339 94.4221 61.0987C94.3872 61.0634 94.3398 61.0436 94.2903 61.0436L73.5351 61.0439Z" fill="white"/>
</g>
</g>
<path opacity="0.81" d="M91.877 65.3004H75.6102C75.5758 65.3004 75.5418 65.2936 75.51 65.2803C75.4782 65.267 75.4494 65.2475 75.4251 65.2229C75.4008 65.1984 75.3815 65.1692 75.3683 65.1371C75.3552 65.105 75.3484 65.0706 75.3484 65.0359C75.3484 65.0011 75.3552 64.9667 75.3683 64.9346C75.3815 64.9025 75.4008 64.8734 75.4251 64.8488C75.4494 64.8243 75.4782 64.8048 75.51 64.7915C75.5418 64.7782 75.5758 64.7713 75.6102 64.7713H91.877C91.9114 64.7713 91.9454 64.7782 91.9772 64.7915C92.0089 64.8048 92.0378 64.8243 92.0621 64.8488C92.0864 64.8734 92.1057 64.9025 92.1189 64.9346C92.132 64.9667 92.1388 65.0011 92.1388 65.0359C92.1388 65.0706 92.132 65.105 92.1189 65.1371C92.1057 65.1692 92.0864 65.1984 92.0621 65.2229C92.0378 65.2475 92.0089 65.267 91.9772 65.2803C91.9454 65.2936 91.9114 65.3004 91.877 65.3004Z" fill="white"/>
<path opacity="0.81" d="M91.877 70.8188H75.6102C75.5407 70.8188 75.4742 70.7909 75.4251 70.7413C75.376 70.6917 75.3484 70.6244 75.3484 70.5543C75.3484 70.4841 75.376 70.4168 75.4251 70.3672C75.4742 70.3176 75.5407 70.2897 75.6102 70.2897H91.877C91.9114 70.2897 91.9454 70.2965 91.9772 70.3098C92.0089 70.3231 92.0378 70.3426 92.0621 70.3672C92.0864 70.3918 92.1057 70.4209 92.1189 70.453C92.132 70.4851 92.1388 70.5195 92.1388 70.5543C92.1388 70.589 92.132 70.6234 92.1189 70.6555C92.1057 70.6876 92.0864 70.7168 92.0621 70.7413C92.0378 70.7659 92.0089 70.7854 91.9772 70.7987C91.9454 70.812 91.9114 70.8188 91.877 70.8188Z" fill="white"/>
<path opacity="0.81" d="M84.3802 68.0596H75.6102C75.5407 68.0596 75.4742 68.0318 75.4251 67.9822C75.376 67.9326 75.3484 67.8653 75.3484 67.7951C75.3484 67.7249 75.376 67.6576 75.4251 67.608C75.4742 67.5584 75.5407 67.5305 75.6102 67.5305H84.3802C84.4496 67.5305 84.5162 67.5584 84.5653 67.608C84.6144 67.6576 84.6419 67.7249 84.6419 67.7951C84.6419 67.8653 84.6144 67.9326 84.5653 67.9822C84.5162 68.0318 84.4496 68.0596 84.3802 68.0596Z" fill="white"/>
<path opacity="0.81" d="M84.3802 73.743H75.6102C75.5407 73.743 75.4742 73.7151 75.4251 73.6655C75.376 73.6159 75.3484 73.5486 75.3484 73.4784C75.3484 73.4083 75.376 73.341 75.4251 73.2914C75.4742 73.2417 75.5407 73.2139 75.6102 73.2139H84.3802C84.4496 73.2139 84.5162 73.2417 84.5653 73.2914C84.6144 73.341 84.6419 73.4083 84.6419 73.4784C84.6419 73.5486 84.6144 73.6159 84.5653 73.6655C84.5162 73.7151 84.4496 73.743 84.3802 73.743Z" fill="white"/>
<path opacity="0.81" d="M81.5247 76.375H75.6102C75.5407 76.375 75.4742 76.3472 75.4251 76.2975C75.376 76.2479 75.3484 76.1806 75.3484 76.1105C75.3484 76.0403 75.376 75.973 75.4251 75.9234C75.4742 75.8738 75.5407 75.8459 75.6102 75.8459H81.5247C81.5941 75.8459 81.6607 75.8738 81.7098 75.9234C81.7589 75.973 81.7865 76.0403 81.7865 76.1105C81.7865 76.1806 81.7589 76.2479 81.7098 76.2975C81.6607 76.3472 81.5941 76.375 81.5247 76.375Z" fill="white"/>
</g>
</g>
<g opacity="0.81">
<path opacity="0.81" d="M25.4634 39.1212H21.5904C21.521 39.1212 21.4544 39.0934 21.4053 39.0438C21.3562 38.9941 21.3286 38.9269 21.3286 38.8567C21.3286 38.7865 21.3562 38.7192 21.4053 38.6696C21.4544 38.62 21.521 38.5921 21.5904 38.5921H25.4634C25.5328 38.5921 25.5994 38.62 25.6485 38.6696C25.6976 38.7192 25.7252 38.7865 25.7252 38.8567C25.7252 38.9269 25.6976 38.9941 25.6485 39.0438C25.5994 39.0934 25.5328 39.1212 25.4634 39.1212Z" fill="white"/>
<path opacity="0.81" d="M25.4634 45.5705H21.5904C21.521 45.5705 21.4544 45.5427 21.4053 45.493C21.3562 45.4434 21.3286 45.3761 21.3286 45.306C21.3286 45.2358 21.3562 45.1685 21.4053 45.1189C21.4544 45.0693 21.521 45.0414 21.5904 45.0414H25.4634C25.5328 45.0414 25.5994 45.0693 25.6485 45.1189C25.6976 45.1685 25.7252 45.2358 25.7252 45.306C25.7252 45.3761 25.6976 45.4434 25.6485 45.493C25.5994 45.5427 25.5328 45.5705 25.4634 45.5705Z" fill="white"/>
<g opacity="0.81">
<g opacity="0.81">
<g opacity="0.81">
<path opacity="0.81" d="M28.2604 52.084H4.59334C4.40515 52.0838 4.22472 52.0082 4.09165 51.8737C3.95858 51.7393 3.88374 51.5569 3.88354 51.3668V31.3504C3.88374 31.1602 3.95858 30.9779 4.09165 30.8434C4.22472 30.7089 4.40515 30.6333 4.59334 30.6331H28.2604C28.4486 30.6333 28.6291 30.7089 28.7621 30.8434C28.8952 30.9779 28.9701 31.1602 28.9702 31.3504V51.3664C28.9701 51.5566 28.8953 51.739 28.7623 51.8736C28.6292 52.0081 28.4487 52.0838 28.2604 52.084ZM4.59334 31.1622C4.54398 31.1623 4.49667 31.1821 4.46177 31.2174C4.42687 31.2527 4.40722 31.3005 4.40713 31.3504V51.3664C4.40722 51.4163 4.42687 51.4641 4.46177 51.4993C4.49667 51.5346 4.54398 51.5545 4.59334 51.5546H28.2604C28.3098 51.5545 28.3571 51.5346 28.392 51.4993C28.4269 51.4641 28.4466 51.4163 28.4467 51.3664V31.3504C28.4466 31.3005 28.4269 31.2527 28.392 31.2174C28.3571 31.1821 28.3098 31.1623 28.2604 31.1622H4.59334Z" fill="white"/>
<path opacity="0.66" d="M28.2604 52.084H4.59334C4.40515 52.0838 4.22472 52.0082 4.09165 51.8737C3.95858 51.7393 3.88374 51.5569 3.88354 51.3668V31.3504C3.88374 31.1602 3.95858 30.9779 4.09165 30.8434C4.22472 30.7089 4.40515 30.6333 4.59334 30.6331H28.2604C28.4486 30.6333 28.6291 30.7089 28.7621 30.8434C28.8952 30.9779 28.9701 31.1602 28.9702 31.3504V51.3664C28.9701 51.5566 28.8953 51.739 28.7623 51.8736C28.6292 52.0081 28.4487 52.0838 28.2604 52.084ZM4.59334 31.1622C4.54398 31.1623 4.49667 31.1821 4.46177 31.2174C4.42687 31.2527 4.40722 31.3005 4.40713 31.3504V51.3664C4.40722 51.4163 4.42687 51.4641 4.46177 51.4993C4.49667 51.5346 4.54398 51.5545 4.59334 51.5546H28.2604C28.3098 51.5545 28.3571 51.5346 28.392 51.4993C28.4269 51.4641 28.4466 51.4163 28.4467 51.3664V31.3504C28.4466 31.3005 28.4269 31.2527 28.392 31.2174C28.3571 31.1821 28.3098 31.1623 28.2604 31.1622H4.59334Z" fill="white"/>
</g>
</g>
<path opacity="0.81" d="M25.4629 35.9919H7.0074C6.93796 35.9919 6.87138 35.964 6.82228 35.9144C6.77319 35.8648 6.74561 35.7975 6.74561 35.7274C6.74561 35.6572 6.77319 35.5899 6.82228 35.5403C6.87138 35.4907 6.93796 35.4628 7.0074 35.4628H25.4629C25.5323 35.4628 25.5989 35.4907 25.648 35.5403C25.6971 35.5899 25.7247 35.6572 25.7247 35.7274C25.7247 35.7975 25.6971 35.8648 25.648 35.9144C25.5989 35.964 25.5323 35.9919 25.4629 35.9919Z" fill="white"/>
<path opacity="0.81" d="M25.4629 42.2512H7.0074C6.93796 42.2512 6.87138 42.2233 6.82228 42.1737C6.77319 42.1241 6.74561 42.0568 6.74561 41.9867C6.74561 41.9165 6.77319 41.8492 6.82228 41.7996C6.87138 41.75 6.93796 41.7221 7.0074 41.7221H25.4629C25.5323 41.7221 25.5989 41.75 25.648 41.7996C25.6971 41.8492 25.7247 41.9165 25.7247 41.9867C25.7247 42.0568 25.6971 42.1241 25.648 42.1737C25.5989 42.2233 25.5323 42.2512 25.4629 42.2512Z" fill="white"/>
<path opacity="0.81" d="M16.9576 39.1212H7.0074C6.93796 39.1212 6.87138 39.0934 6.82228 39.0438C6.77319 38.9941 6.74561 38.9269 6.74561 38.8567C6.74561 38.7865 6.77319 38.7192 6.82228 38.6696C6.87138 38.62 6.93796 38.5921 7.0074 38.5921H16.9573C17.0267 38.5921 17.0933 38.62 17.1424 38.6696C17.1915 38.7192 17.219 38.7865 17.219 38.8567C17.219 38.9269 17.1915 38.9941 17.1424 39.0438C17.0933 39.0934 17.0267 39.1212 16.9573 39.1212H16.9576Z" fill="white"/>
<path opacity="0.81" d="M16.9576 45.5705H7.0074C6.93796 45.5705 6.87138 45.5427 6.82228 45.493C6.77319 45.4434 6.74561 45.3761 6.74561 45.306C6.74561 45.2358 6.77319 45.1685 6.82228 45.1189C6.87138 45.0693 6.93796 45.0414 7.0074 45.0414H16.9573C17.0267 45.0414 17.0933 45.0693 17.1424 45.1189C17.1915 45.1685 17.219 45.2358 17.219 45.306C17.219 45.3761 17.1915 45.4434 17.1424 45.493C17.0933 45.5427 17.0267 45.5705 16.9573 45.5705H16.9576Z" fill="white"/>
<path opacity="0.81" d="M13.7181 48.5592H7.0074C6.93796 48.5592 6.87138 48.5314 6.82228 48.4818C6.77319 48.4322 6.74561 48.3649 6.74561 48.2947C6.74561 48.2245 6.77319 48.1572 6.82228 48.1076C6.87138 48.058 6.93796 48.0302 7.0074 48.0302H13.7181C13.7876 48.0302 13.8542 48.058 13.9032 48.1076C13.9523 48.1572 13.9799 48.2245 13.9799 48.2947C13.9799 48.3649 13.9523 48.4322 13.9032 48.4818C13.8542 48.5314 13.7876 48.5592 13.7181 48.5592Z" fill="white"/>
</g>
</g>
<path d="M93.6481 30.2465H81.8787C81.6068 30.2591 81.3463 30.3601 81.1359 30.5345C80.9254 30.709 80.7765 30.9474 80.7111 31.2144L80.3213 32.5214C80.2559 32.7884 80.1069 33.0268 79.8965 33.2012C79.6861 33.3756 79.4256 33.4767 79.1537 33.4893H62.3037C61.9512 33.5166 61.6237 33.6833 61.3922 33.9532C61.1607 34.2231 61.044 34.5744 61.0674 34.9308V54.2095C61.044 54.5659 61.1607 54.9172 61.3922 55.1871C61.6237 55.4571 61.9512 55.6237 62.3037 55.651H93.647C94.011 55.6362 94.3545 55.4762 94.6019 55.206C94.8494 54.9358 94.9807 54.5774 94.9671 54.2095V31.6879C94.9807 31.3202 94.8495 30.962 94.6023 30.6918C94.3551 30.4216 94.0119 30.2615 93.6481 30.2465Z" fill="#3E479B"/>
<path d="M81.6243 33.6922L82.0405 32.3851C82.1197 32.111 82.2831 31.8694 82.5072 31.6954C82.7313 31.5214 83.0044 31.4239 83.2869 31.4172H93.6483C94.0123 31.4319 94.3558 31.592 94.6032 31.8622C94.8507 32.1324 94.982 32.4908 94.9684 32.8587V55.3791C94.982 55.7471 94.8507 56.1054 94.6032 56.3756C94.3558 56.6459 94.0123 56.8059 93.6483 56.8206H62.3889C62.0249 56.8058 61.6816 56.6457 61.4342 56.3755C61.1868 56.1053 61.0555 55.747 61.0691 55.3791V36.1019C61.0555 35.7341 61.1868 35.3758 61.4342 35.1056C61.6816 34.8354 62.0249 34.6753 62.3889 34.6605H80.3779C80.6605 34.6537 80.9336 34.5561 81.1577 34.3821C81.3818 34.208 81.5452 33.9664 81.6243 33.6922Z" fill="#6D6CD4"/>
<path opacity="0.12" d="M82.3898 35.021L82.7821 33.7889C82.8566 33.5303 83.0106 33.3023 83.2219 33.1381C83.4332 32.9738 83.6907 32.8818 83.9572 32.8754H93.7234C94.0666 32.8894 94.3902 33.0403 94.6234 33.295C94.8567 33.5498 94.9805 33.8875 94.9676 34.2343V55.462C94.9805 55.8088 94.8567 56.1466 94.6234 56.4013C94.3902 56.6561 94.0666 56.8069 93.7234 56.8209H64.2589C63.9158 56.8069 63.5922 56.656 63.359 56.4013C63.1258 56.1466 63.0022 55.8088 63.0151 55.462V37.292C63.0022 36.9452 63.1258 36.6074 63.359 36.3527C63.5922 36.0979 63.9158 35.947 64.2589 35.9331H81.2149C81.4812 35.9267 81.7386 35.8349 81.9498 35.671C82.161 35.507 82.3151 35.2794 82.3898 35.021Z" fill="white"/>
<path d="M91.3967 55.1959H83.6641C83.5947 55.1959 83.5281 55.1681 83.479 55.1184C83.4299 55.0688 83.4023 55.0015 83.4023 54.9314C83.4023 54.8612 83.4299 54.7939 83.479 54.7443C83.5281 54.6947 83.5947 54.6668 83.6641 54.6668H91.3964C91.636 54.6663 91.8656 54.5699 92.0351 54.3987C92.2045 54.2275 92.2999 53.9955 92.3004 53.7533V47.5537C92.3004 47.4835 92.3279 47.4162 92.377 47.3666C92.4261 47.317 92.4927 47.2891 92.5621 47.2891C92.6316 47.2891 92.6982 47.317 92.7473 47.3666C92.7964 47.4162 92.8239 47.4835 92.8239 47.5537V53.7522C92.8235 54.1347 92.673 54.5014 92.4055 54.772C92.138 55.0426 91.7752 55.1951 91.3967 55.1959Z" fill="white"/>
<path d="M1.32848 52.1699H13.1741C13.4611 52.1958 13.7317 52.3164 13.9441 52.5133C14.1564 52.7101 14.2987 52.9721 14.3489 53.2588L14.7416 54.7291C14.792 55.0158 14.9344 55.2778 15.1468 55.4745C15.3592 55.6713 15.6298 55.7919 15.9168 55.8176H32.8753C33.5624 55.8176 34.1196 56.5437 34.1196 57.4393V79.1241C34.1196 80.0196 33.5627 80.7457 32.8753 80.7457H1.32848C0.594813 80.7457 0 80.0196 0 79.1241V53.7912C0 52.8956 0.594813 52.1699 1.32848 52.1699Z" fill="#F28393"/>
<path opacity="0.12" d="M13.4312 56.0472L13.0122 54.5769C12.9484 54.2823 12.7914 54.0168 12.5651 53.8203C12.3387 53.6239 12.0552 53.5072 11.7574 53.488H1.32848C0.594813 53.488 0 54.214 0 55.1096V80.4425C0 81.3381 0.594813 82.0641 1.32848 82.0641H32.79C33.5237 82.0641 34.1185 81.3381 34.1185 80.4425V58.7577C34.1185 57.8622 33.5237 57.1361 32.79 57.1361H14.6849C14.3873 57.1167 14.104 56.9999 13.8779 56.8035C13.6517 56.6071 13.495 56.3416 13.4312 56.0472Z" fill="white"/>
<path opacity="0.12" d="M12.6589 57.5406L12.264 56.1546C12.2041 55.8769 12.0562 55.6265 11.8428 55.4413C11.6294 55.2562 11.362 55.1464 11.0813 55.1286H1.25182C0.560463 55.1286 0 55.813 0 56.6571V80.535C0 81.379 0.560463 82.0634 1.25182 82.0634H30.9065C31.5978 82.0634 32.1583 81.379 32.1583 80.535V60.0951C32.1583 59.251 31.5978 58.5663 30.9065 58.5663H13.8395C13.5591 58.5481 13.2923 58.4382 13.0793 58.2531C12.8663 58.068 12.7187 57.8179 12.6589 57.5406Z" fill="white"/>
<path d="M2.42073 61.4778C2.35501 61.4739 2.29347 61.4439 2.24957 61.3943C2.20566 61.3448 2.18296 61.2796 2.18642 61.2132V57.5403C2.17495 57.3138 2.25245 57.092 2.40204 56.923C2.55164 56.7541 2.76122 56.6517 2.98517 56.6381H7.86662C7.93075 56.6457 7.98988 56.6769 8.03279 56.7256C8.0757 56.7744 8.0994 56.8374 8.0994 56.9026C8.0994 56.9679 8.0757 57.0309 8.03279 57.0796C7.98988 57.1284 7.93075 57.1596 7.86662 57.1672H2.98517C2.89255 57.1727 2.80587 57.2151 2.74403 57.285C2.68218 57.3549 2.65019 57.4466 2.65503 57.5403V61.2128C2.65859 61.2793 2.63593 61.3446 2.59201 61.3942C2.5481 61.4439 2.48651 61.4739 2.42073 61.4778Z" fill="white"/>
<path d="M65.8354 20.3445H32.1859C26.5979 20.3445 22.0679 24.9221 22.0679 30.569C22.0679 36.2158 26.5979 40.7935 32.1859 40.7935H65.8354C71.4234 40.7935 75.9534 36.2158 75.9534 30.569C75.9534 24.9221 71.4234 20.3445 65.8354 20.3445Z" fill="#C5D9FF"/>
<path d="M49.0111 36.2876C56.8699 36.2876 63.2407 29.8497 63.2407 21.9081C63.2407 13.9666 56.8699 7.5287 49.0111 7.5287C41.1523 7.5287 34.7815 13.9666 34.7815 21.9081C34.7815 29.8497 41.1523 36.2876 49.0111 36.2876Z" fill="#599AF2"/>
<path d="M65.8354 17.3326H32.1859C26.5979 17.3326 22.0679 21.9103 22.0679 27.5571C22.0679 33.204 26.5979 37.7816 32.1859 37.7816H65.8354C71.4234 37.7816 75.9534 33.204 75.9534 27.5571C75.9534 21.9103 71.4234 17.3326 65.8354 17.3326Z" fill="#599AF2"/>
<path d="M54.6411 32.1013C61.8585 28.9589 65.1885 20.499 62.0788 13.2056C58.9692 5.91224 50.5974 2.54719 43.38 5.68957C36.1626 8.83196 32.8326 17.2918 35.9423 24.5852C39.0519 31.8786 47.4237 35.2436 54.6411 32.1013Z" fill="#599AF2"/>
<g opacity="0.35">
<g opacity="0.35">
<path opacity="0.35" d="M65.8354 17.3326H32.1859C26.5979 17.3326 22.0679 21.9103 22.0679 27.5571C22.0679 33.204 26.5979 37.7816 32.1859 37.7816H65.8354C71.4234 37.7816 75.9534 33.204 75.9534 27.5571C75.9534 21.9103 71.4234 17.3326 65.8354 17.3326Z" fill="#ECF1F7"/>
<path opacity="0.35" d="M54.6411 32.1013C61.8585 28.9589 65.1885 20.499 62.0788 13.2056C58.9692 5.91224 50.5974 2.54719 43.38 5.68957C36.1626 8.83196 32.8326 17.2918 35.9423 24.5852C39.0519 31.8786 47.4237 35.2436 54.6411 32.1013Z" fill="#ECF1F7"/>
</g>
</g>
<path d="M45.6826 21.0356C45.5527 21.0355 45.4258 20.9965 45.318 20.9233C45.2101 20.8502 45.1263 20.7462 45.0771 20.6248C45.0279 20.5033 45.0156 20.3698 45.0417 20.2413C45.0678 20.1127 45.1312 19.9949 45.2237 19.9029L49.0425 16.1093L52.8005 19.9069C52.9232 20.0309 52.9922 20.1992 52.9922 20.3746C52.9922 20.55 52.9232 20.7183 52.8005 20.8423C52.6777 20.9663 52.5112 21.036 52.3376 21.036C52.164 21.036 51.9975 20.9663 51.8748 20.8423L49.0345 17.9725L46.1418 20.8463C46.0194 20.9682 45.8544 21.0362 45.6826 21.0356Z" fill="white"/>
<path d="M49.0102 26.297C48.8366 26.2969 48.6702 26.2271 48.5475 26.1031C48.4248 25.9791 48.3558 25.811 48.3557 25.6356V17.04C48.3557 16.8646 48.4247 16.6963 48.5475 16.5722C48.6702 16.4482 48.8367 16.3785 49.0104 16.3785C49.184 16.3785 49.3505 16.4482 49.4733 16.5722C49.5961 16.6963 49.665 16.8646 49.665 17.04V25.6352C49.6651 25.7221 49.6482 25.8082 49.6153 25.8885C49.5824 25.9688 49.5342 26.0418 49.4733 26.1032C49.4125 26.1647 49.3403 26.2134 49.2608 26.2467C49.1814 26.2799 49.0962 26.297 49.0102 26.297Z" fill="white"/>
<path d="M55.1984 30.3789H42.7257C42.2958 30.3785 41.8836 30.2056 41.5795 29.8984C41.2755 29.5912 41.1045 29.1746 41.104 28.7401V24.161C41.104 23.9855 41.173 23.8173 41.2957 23.6932C41.4185 23.5692 41.585 23.4995 41.7587 23.4995C41.9323 23.4995 42.0988 23.5692 42.2216 23.6932C42.3443 23.8173 42.4133 23.9855 42.4133 24.161V28.7401C42.4134 28.8238 42.4464 28.9041 42.5049 28.9633C42.5635 29.0225 42.6429 29.0558 42.7257 29.0558H55.1984C55.3072 29.0558 55.4115 29.0122 55.4885 28.9345C55.5654 28.8568 55.6087 28.7514 55.6088 28.6415V24.161C55.6088 23.9855 55.6778 23.8173 55.8005 23.6932C55.9233 23.5692 56.0898 23.4995 56.2635 23.4995C56.4371 23.4995 56.6036 23.5692 56.7264 23.6932C56.8491 23.8173 56.9181 23.9855 56.9181 24.161V28.6415C56.9175 29.1022 56.7362 29.5438 56.4138 29.8695C56.0914 30.1953 55.6543 30.3785 55.1984 30.3789Z" fill="white"/>
<path opacity="0.36" d="M68.8049 74.1477L33.1088 86.0659C32.9013 86.1354 32.6822 86.1628 32.4641 86.1467C32.246 86.1306 32.0332 86.0711 31.8379 85.9718C31.6425 85.8724 31.4685 85.7352 31.3257 85.5678C31.183 85.4004 31.0743 85.2062 31.0058 84.9964L19.2119 48.9241C19.1431 48.7143 19.1159 48.4929 19.1319 48.2726C19.1479 48.0522 19.2067 47.8371 19.305 47.6397C19.4033 47.4424 19.5391 47.2665 19.7048 47.1222C19.8704 46.978 20.0626 46.8681 20.2703 46.799L55.9667 34.8808C56.1743 34.8114 56.3933 34.784 56.6114 34.8001C56.8294 34.8163 57.0422 34.8758 57.2375 34.9751C57.4327 35.0744 57.6067 35.2117 57.7495 35.379C57.8922 35.5464 58.0009 35.7405 58.0694 35.9503L69.8633 72.0244C69.9318 72.2341 69.9588 72.4553 69.9427 72.6755C69.9266 72.8957 69.8677 73.1105 69.7694 73.3076C69.6711 73.5048 69.5354 73.6805 69.3699 73.8246C69.2044 73.9688 69.0124 74.0786 68.8049 74.1477Z" fill="#4C65BA"/>
<path d="M52.7415 33.7489L18.249 45.2648C17.0436 45.6673 16.3893 46.981 16.7875 48.1991L28.1835 83.0547C28.5817 84.2728 29.8818 84.934 31.0872 84.5316L65.5797 73.0157C66.7851 72.6132 67.4394 71.2995 67.0412 70.0814L55.6452 35.2257C55.247 34.0076 53.9469 33.3464 52.7415 33.7489Z" fill="white"/>
<path d="M52.6865 37.4755L20.4473 48.2391L31.0988 80.8177L63.338 70.0541L52.6865 37.4755Z" fill="#C5D9FF"/>
<path opacity="0.47" d="M30.8251 81.0933L28.4133 73.7174L31.9406 65.1255C32.1729 64.5535 32.6092 64.0905 33.1632 63.8281C33.7172 63.5658 34.3485 63.5232 34.9321 63.7089L41.4616 65.7595C41.6485 65.8187 41.8497 65.8125 42.0327 65.7421C42.2157 65.6716 42.3699 65.5409 42.4705 65.3711L47.9066 56.2281C48.4699 55.2873 49.3504 54.5836 50.3861 54.2463C51.4218 53.909 52.5432 53.9609 53.5441 54.3924L59.5313 56.9951L59.5867 57.1646L63.8097 70.0817L63.4369 70.206L30.8251 81.0933ZM29.2511 73.7489L31.3245 80.0907L62.8189 69.5757L58.8964 57.5819L53.2339 55.1199C52.4076 54.7636 51.4818 54.7207 50.6267 54.9992C49.7716 55.2777 49.0448 55.8587 48.5799 56.6355L43.1434 65.7788C42.9525 66.1016 42.6596 66.35 42.3119 66.4839C41.9642 66.6179 41.582 66.6295 41.227 66.5169L34.6977 64.4674C34.3012 64.3411 33.8722 64.3699 33.4956 64.5482C33.1191 64.7264 32.8226 65.0411 32.6649 65.4299L29.2511 73.7489Z" fill="white"/>
<path opacity="0.47" d="M41.5883 55.69C40.5372 55.6913 39.5243 55.2924 38.7512 54.5727C37.9781 53.8531 37.5018 52.8655 37.417 51.8069C37.3321 50.7482 37.6451 49.6961 38.2936 48.8601C38.942 48.0242 39.8783 47.4658 40.9159 47.2963C41.9535 47.1267 43.0162 47.3583 43.8924 47.9451C44.7685 48.5318 45.3938 49.4306 45.6435 50.4623C45.8933 51.494 45.7493 52.583 45.2401 53.5122C44.731 54.4414 43.8941 55.1427 42.8962 55.4763C42.4742 55.6172 42.0327 55.6894 41.5883 55.69ZM41.5829 48.0383C40.8657 48.0388 40.1671 48.2689 39.5875 48.6955C39.0078 49.1222 38.5768 49.7235 38.3563 50.4132C38.1359 51.1028 38.1373 51.8453 38.3605 52.534C38.5836 53.2228 39.017 53.8224 39.5984 54.2467C40.1797 54.6711 40.8792 54.8984 41.5964 54.896C42.3135 54.8936 43.0115 54.6617 43.5901 54.2335C44.1687 53.8053 44.5981 53.2028 44.8168 52.5126C45.0355 51.8224 45.0321 51.0799 44.8072 50.3918C44.586 49.7048 44.1545 49.1066 43.5749 48.6836C42.9954 48.2605 42.2978 48.0346 41.5829 48.0383Z" fill="white"/>
<path opacity="0.36" d="M78.9177 49.1186H52.3182C51.0487 49.1186 50.0195 50.1586 50.0195 51.4414V78.3211C50.0195 79.6039 51.0487 80.6439 52.3182 80.6439H78.9177C80.1872 80.6439 81.2164 79.6039 81.2164 78.3211V51.4414C81.2164 50.1586 80.1872 49.1186 78.9177 49.1186Z" fill="#4C65BA"/>
<path d="M77.3343 47.5186H50.7347C49.4652 47.5186 48.436 48.5586 48.436 49.8415V76.7211C48.436 78.0039 49.4652 79.0439 50.7347 79.0439H77.3343C78.6038 79.0439 79.6329 78.0039 79.6329 76.7211V49.8415C79.6329 48.5586 78.6038 47.5186 77.3343 47.5186Z" fill="white"/>
<path opacity="0.79" d="M76.9587 50.2038H51.0754V76.3596H76.9587V50.2038Z" fill="#6081A8"/>
<path opacity="0.47" d="M77.3866 76.5869H50.7183V70.536L55.3274 65.1427C55.6461 64.7669 56.0929 64.5258 56.5791 64.467C57.0654 64.4082 57.5558 64.536 57.9533 64.8252L62.194 67.8868C62.2984 67.9623 62.4248 68.0002 62.553 67.9944C62.6812 67.9885 62.8037 67.9393 62.9009 67.8547L68.9995 62.5506C69.647 61.9907 70.4727 61.6859 71.3249 61.6922C72.1771 61.6985 72.9983 62.0155 73.6376 62.5849L77.3866 65.9437V76.5869ZM51.5033 75.7933H76.6008V66.3007L73.1162 63.1787C72.6194 62.736 71.9812 62.4895 71.3188 62.4845C70.6565 62.4795 70.0147 62.7165 69.5115 63.1517L63.4129 68.4558C63.1827 68.6569 62.8921 68.7738 62.5881 68.7877C62.2841 68.8016 61.9843 68.7117 61.737 68.5325L57.4966 65.4716C57.2583 65.2982 56.9642 65.2216 56.6726 65.2568C56.3811 65.292 56.1132 65.4364 55.9219 65.6616L51.504 70.8316L51.5033 75.7933Z" fill="white"/>
<path opacity="0.47" d="M65.6125 60.962C64.9641 60.962 64.3302 60.7677 63.7911 60.4037C63.2519 60.0396 62.8317 59.5222 62.5836 58.9168C62.3354 58.3114 62.2705 57.6453 62.397 57.0026C62.5235 56.3599 62.8357 55.7696 63.2942 55.3063C63.7528 54.8429 64.3369 54.5274 64.9729 54.3996C65.6089 54.2717 66.2681 54.3373 66.8671 54.5881C67.4662 54.8389 67.9783 55.2635 68.3385 55.8083C68.6988 56.3532 68.891 56.9937 68.891 57.649C68.8901 58.5273 68.5444 59.3695 67.9297 59.9906C67.3151 60.6117 66.4817 60.961 65.6125 60.962ZM65.6125 55.1295C65.1194 55.1295 64.6374 55.2773 64.2274 55.5541C63.8174 55.831 63.4978 56.2245 63.3091 56.6848C63.1204 57.1452 63.0711 57.6518 63.1673 58.1405C63.2635 58.6292 63.5009 59.0781 63.8496 59.4305C64.1983 59.7828 64.6425 60.0227 65.1261 60.12C65.6097 60.2172 66.111 60.1673 66.5666 59.9766C67.0222 59.7859 67.4115 59.463 67.6855 59.0487C67.9594 58.6343 68.1057 58.1472 68.1057 57.649C68.1052 56.9809 67.8424 56.3404 67.3749 55.868C66.9075 55.3956 66.2736 55.13 65.6125 55.1295Z" fill="white"/>
<path opacity="0.36" d="M51.9935 64.4997L37.4272 70.0149C36.2384 70.465 35.6357 71.8037 36.0812 73.005L41.5389 87.7247C41.9843 88.926 43.3091 89.535 44.4979 89.0849L59.0642 83.5697C60.253 83.1196 60.8556 81.7809 60.4102 80.5796L54.9525 65.8599C54.5071 64.6586 53.1823 64.0496 51.9935 64.4997Z" fill="#4C65BA"/>
<path d="M50.6766 63.8947L36.1103 69.4099C34.9215 69.86 34.3188 71.1988 34.7643 72.4001L40.222 87.1197C40.6674 88.321 41.9922 88.93 43.181 88.4799L57.7473 82.9647C58.9361 82.5146 59.5387 81.1759 59.0933 79.9746L53.6356 65.2549C53.1902 64.0536 51.8654 63.4446 50.6766 63.8947Z" fill="white"/>
<path d="M51.8058 65.3132L36.156 71.2437L42.0247 87.0582L57.6745 81.1278L51.8058 65.3132Z" fill="#599AF2"/>
<path opacity="0.47" d="M41.7768 87.4665L40.3525 83.6255L41.949 79.2586C42.0693 78.9254 42.3092 78.65 42.621 78.4869C42.9328 78.3239 43.2938 78.2852 43.6325 78.3784L46.8847 79.2586C46.9346 79.2723 46.9877 79.2686 47.0354 79.248C47.083 79.2275 47.1224 79.1913 47.1472 79.1454L49.6465 74.5414C49.9292 74.0249 50.3868 73.6288 50.9352 73.4258C51.4837 73.2228 52.0862 73.2266 52.6321 73.4364L55.7114 74.6324L58.1702 81.2614L41.7768 87.4665ZM41.1907 83.6233L42.2364 86.4445L57.1578 80.7948L55.0992 75.2433L52.3512 74.1756C51.9828 74.0337 51.5761 74.031 51.2059 74.168C50.8357 74.3051 50.5269 74.5726 50.3364 74.9214L47.8367 79.5254C47.7278 79.7275 47.5547 79.8867 47.3453 79.9771C47.1358 80.0676 46.9023 80.084 46.6825 80.0238L43.43 79.1432C43.2805 79.1017 43.1211 79.1187 42.9834 79.1906C42.8457 79.2626 42.7399 79.3843 42.687 79.5316L41.1907 83.6233Z" fill="white"/>
<path opacity="0.47" d="M46.6215 74.6983C46.2094 74.6988 45.805 74.5853 45.4522 74.37C45.0994 74.1548 44.8117 73.846 44.6202 73.4772C44.4287 73.1084 44.3408 72.6937 44.366 72.278C44.3912 71.8624 44.5286 71.4616 44.7632 71.1192C44.9978 70.7768 45.3207 70.5059 45.6968 70.3357C46.073 70.1656 46.488 70.1028 46.897 70.1541C47.306 70.2054 47.6932 70.3689 48.0168 70.6269C48.3403 70.8848 48.5878 71.2273 48.7324 71.6173C48.8603 71.9622 48.9036 72.3332 48.8587 72.6986C48.8138 73.0641 48.682 73.4131 48.4745 73.7159C48.2671 74.0186 47.9902 74.2662 47.6675 74.4372C47.3448 74.6083 46.9859 74.6979 46.6215 74.6983ZM46.6171 70.9304C46.3036 70.9307 45.9984 71.0321 45.7459 71.22C45.4934 71.4078 45.3069 71.6722 45.2136 71.9747C45.1202 72.2771 45.1249 72.6018 45.2269 72.9014C45.3289 73.2009 45.5229 73.4598 45.7806 73.6401C46.0383 73.8205 46.3464 73.913 46.6597 73.9041C46.9731 73.8952 47.2755 73.7854 47.5229 73.5907C47.7702 73.3961 47.9495 73.1266 48.0347 72.8217C48.12 72.5168 48.1066 72.1924 47.9966 71.8958C47.8919 71.6116 47.7035 71.3668 47.4569 71.1941C47.2102 71.0215 46.9171 70.9295 46.6171 70.9304Z" fill="white"/>
</svg>
