<svg width="198" height="201" viewBox="0 0 198 201" fill="none" xmlns="http://www.w3.org/2000/svg">
<path d="M191.263 110.945C191.262 128.569 186.034 145.797 176.241 160.45C166.449 175.104 152.531 186.524 136.248 193.267C119.964 200.01 102.047 201.773 84.7621 198.333C67.4768 194.893 51.5998 186.405 39.1387 173.942C26.6777 161.479 18.1923 145.6 14.7556 128.314C11.3188 111.028 13.0852 93.1116 19.8312 76.8296C26.5773 60.5476 38 46.6317 52.655 36.8417C67.3099 27.0517 84.5388 21.8272 102.163 21.829C113.882 21.7671 125.498 24.03 136.337 28.4867C147.176 32.9435 157.024 39.5056 165.31 47.7934C173.596 56.0811 180.157 65.93 184.611 76.7699C189.066 87.6098 191.327 99.2256 191.263 110.945V110.945Z" fill="url(#paint0_linear_0_1820)"/>
<path d="M45.6787 6.293C45.6787 7.53759 45.3097 8.75424 44.6182 9.78909C43.9268 10.8239 42.944 11.6305 41.7942 12.1069C40.6444 12.5832 39.3791 12.7079 38.1584 12.4651C36.9377 12.2224 35.8164 11.6232 34.9363 10.7432C34.0562 9.86319 33.4568 8.74197 33.2138 7.52132C32.9709 6.30066 33.0953 5.03537 33.5715 3.88546C34.0476 2.73555 34.8541 1.75265 35.8888 1.06104C36.9236 0.369439 38.1402 0.000197854 39.3848 7.94617e-08C40.2113 -0.000131256 41.0297 0.162543 41.7933 0.478737C42.5569 0.794931 43.2508 1.25845 43.8352 1.84282C44.4197 2.42719 44.8833 3.12097 45.1997 3.88454C45.516 4.6481 45.6787 5.46651 45.6787 6.293V6.293Z" fill="url(#paint1_linear_0_1820)"/>
<path d="M194.141 178.293C195.73 178.293 197.019 177.004 197.019 175.415C197.019 173.826 195.73 172.537 194.141 172.537C192.551 172.537 191.263 173.826 191.263 175.415C191.263 177.004 192.551 178.293 194.141 178.293Z" fill="url(#paint2_linear_0_1820)"/>
<path d="M183.368 32.762C184.958 32.762 186.246 31.4735 186.246 29.884C186.246 28.2945 184.958 27.006 183.368 27.006C181.779 27.006 180.49 28.2945 180.49 29.884C180.49 31.4735 181.779 32.762 183.368 32.762Z" fill="url(#paint3_linear_0_1820)"/>
<path d="M5.75401 162.694C5.75381 163.263 5.58492 163.819 5.26872 164.292C4.95251 164.765 4.50318 165.133 3.97752 165.351C3.45186 165.569 2.87346 165.626 2.31547 165.515C1.75748 165.404 1.24493 165.13 0.84263 164.727C0.440334 164.325 0.166379 163.812 0.0553374 163.254C-0.0557041 162.696 0.00116023 162.118 0.21879 161.592C0.436419 161.067 0.805027 160.617 1.27799 160.301C1.75096 159.985 2.30708 159.816 2.87602 159.816C3.25396 159.816 3.62816 159.89 3.97733 160.035C4.32651 160.18 4.6438 160.392 4.91105 160.659C5.1783 160.926 5.39032 161.243 5.53495 161.593C5.67958 161.942 5.75401 162.316 5.75401 162.694V162.694Z" fill="url(#paint4_linear_0_1820)"/>
<path d="M134.419 92.876L94.4193 132.876L76.2373 114.694" stroke="white" stroke-width="10" stroke-linecap="round" stroke-linejoin="round"/>
<defs>
<linearGradient id="paint0_linear_0_1820" x1="101.999" y1="-1.50012" x2="102.155" y2="200.047" gradientUnits="userSpaceOnUse">
<stop stop-color="#583BAB"/>
<stop offset="1" stop-color="#7054C1"/>
</linearGradient>
<linearGradient id="paint1_linear_0_1820" x1="33.6717" y1="-50.7845" x2="75.5455" y2="367.838" gradientUnits="userSpaceOnUse">
<stop stop-color="#583BAB"/>
<stop offset="1" stop-color="#583BAB"/>
</linearGradient>
<linearGradient id="paint2_linear_0_1820" x1="191.527" y1="149.312" x2="210.678" y2="340.762" gradientUnits="userSpaceOnUse">
<stop stop-color="#583BAB"/>
<stop offset="1" stop-color="#583BAB"/>
</linearGradient>
<linearGradient id="paint3_linear_0_1820" x1="180.755" y1="3.78052" x2="199.905" y2="195.231" gradientUnits="userSpaceOnUse">
<stop stop-color="#583BAB"/>
<stop offset="1" stop-color="#583BAB"/>
</linearGradient>
<linearGradient id="paint4_linear_0_1820" x1="0.264682" y1="136.599" x2="19.4082" y2="327.982" gradientUnits="userSpaceOnUse">
<stop stop-color="#583BAB"/>
<stop offset="1" stop-color="#583BAB"/>
</linearGradient>
</defs>
</svg>
