<svg width="69" height="105" viewBox="0 0 69 105" fill="none" xmlns="http://www.w3.org/2000/svg">
<path d="M62.9709 31.7402H8.13086V92.5402H62.9709V31.7402Z" fill="#3F232A"/>
<path d="M49.56 31.7402H21.54V92.5402H49.56V31.7402Z" fill="#270C14"/>
<path d="M18.4109 28.2202H8.13086V94.1702H18.4109V28.2202Z" fill="#3F232A"/>
<path d="M41.8409 67.5801H26.8409C26.8409 67.5801 27.2209 79.0901 25.3809 82.4301H43.5109C41.6409 79.0901 41.8409 67.5801 41.8409 67.5801Z" fill="#F4B88E"/>
<g style="mix-blend-mode:multiply">
<path d="M26.7305 74.6501C29.5205 75.9701 32.3505 77.2301 35.5505 76.9301C37.819 76.6939 40.0235 76.036 42.0505 74.9901C41.7705 71.2101 41.8305 67.5801 41.8305 67.5801H26.8305C26.8305 67.5801 26.9205 71.0001 26.7305 74.6501Z" fill="#F5DCD6"/>
</g>
<path d="M62.2702 88.95L41.3402 80.79H27.4702L6.54016 88.9601C6.54016 88.9601 -0.789838 91.59 0.0701616 104.33H68.7502C69.7502 90.79 62.2702 88.95 62.2702 88.95Z" fill="#F4B88E"/>
<path d="M53.3 45.7098C52.68 49.5298 53.75 52.9198 55.69 53.2798C57.63 53.6398 59.69 50.8498 60.31 47.0298C60.93 43.2098 59.85 39.8198 57.91 39.4498C55.97 39.0798 53.91 41.8798 53.3 45.7098Z" fill="#F4B88E"/>
<path d="M55.6308 44.6702C55.6532 44.4817 55.6866 44.2948 55.7308 44.1102C55.8364 43.6376 55.994 43.1781 56.2008 42.7402C56.4408 42.2202 56.8308 41.6402 57.3208 41.6102C57.4495 41.6022 57.5785 41.6192 57.7008 41.6602C57.7637 41.6879 57.824 41.7214 57.8808 41.7602C57.9321 41.7905 57.9792 41.8274 58.0208 41.8702C58.2421 42.1049 58.4033 42.3897 58.4908 42.7002C58.6086 43.0536 58.6857 43.4193 58.7208 43.7902C58.7556 44.1527 58.7556 44.5177 58.7208 44.8802C58.6608 45.2702 58.6408 45.6602 58.5708 45.9902C58.5008 46.3202 58.4508 46.6502 58.3908 46.9902C58.3308 47.3302 58.2508 47.5702 58.2008 47.8102C58.1508 48.0502 58.0708 48.2702 58.0208 48.4402C57.9208 48.7902 57.8708 49.0002 57.8708 49.0002C57.8708 49.0002 57.9708 48.8202 58.1308 48.5002C58.2338 48.3117 58.3272 48.1181 58.4108 47.9202C58.5108 47.6802 58.6208 47.4202 58.7308 47.1302C58.8408 46.8402 58.9308 46.4902 59.0408 46.1302C59.1508 45.7702 59.2008 45.4102 59.2708 45.0202C59.3473 44.5879 59.3641 44.1471 59.3208 43.7102C59.2868 43.2721 59.203 42.8393 59.0708 42.4202C58.9459 41.9961 58.7154 41.6108 58.4008 41.3002C58.3152 41.2233 58.2213 41.1563 58.1208 41.1002C58.0349 41.0541 57.9444 41.0172 57.8508 40.9902C57.659 40.9551 57.4625 40.9551 57.2708 40.9902C56.8784 41.0862 56.5382 41.3298 56.3208 41.6702C56.1216 41.9625 55.9666 42.2826 55.8608 42.6202C55.7074 43.12 55.62 43.6377 55.6008 44.1602C55.599 44.3307 55.609 44.5011 55.6308 44.6702Z" fill="#F2A57F"/>
<path d="M55.6307 44.6699C55.6307 44.6699 55.4507 44.2599 56.7207 44.1699C56.7207 44.1699 58.1507 44.4299 57.3107 46.3299C57.1228 46.7403 56.9787 47.1693 56.8807 47.6099C56.7607 48.2499 56.9807 49.1199 56.6407 49.6799C56.2007 50.4099 55.0807 49.9999 55.0107 49.1599C55.1265 48.3654 55.4394 47.6125 55.9207 46.9699C56.1678 46.6194 56.2751 46.1892 56.2214 45.7637C56.1678 45.3382 55.9571 44.9481 55.6307 44.6699Z" fill="#F2A57F"/>
<path d="M55.0207 49.0801C54.9841 49.11 54.9506 49.1436 54.9207 49.1801C54.8408 49.2906 54.7769 49.4118 54.7307 49.5401C54.7038 49.6284 54.6838 49.7187 54.6707 49.8101C54.6554 49.9162 54.6554 50.0239 54.6707 50.1301C54.6707 50.2401 54.6707 50.3501 54.6707 50.4701C54.695 50.5793 54.7284 50.6864 54.7707 50.7901C54.8113 50.8895 54.858 50.9864 54.9107 51.0801C54.9707 51.1601 55.0407 51.2301 55.1007 51.3001C55.1999 51.4279 55.3361 51.5221 55.4907 51.5701C55.6291 51.6341 55.7784 51.6715 55.9307 51.6801C55.8791 51.5206 55.8121 51.3665 55.7307 51.2201C55.6977 51.1579 55.661 51.0978 55.6207 51.0401C55.5968 50.9676 55.5666 50.8974 55.5307 50.8301C55.504 50.7584 55.4669 50.691 55.4207 50.6301C55.388 50.559 55.3613 50.4855 55.3407 50.4101C55.2759 50.2793 55.2256 50.1418 55.1907 50.0001C55.1907 49.9301 55.1907 49.8501 55.1307 49.7901C55.1268 49.7201 55.1268 49.65 55.1307 49.5801C55.0207 49.3201 55.0207 49.0801 55.0207 49.0801Z" fill="#F2A57F"/>
<path d="M16.4206 45.7098C17.0306 49.5298 15.9606 52.9198 14.0206 53.2798C12.0806 53.6398 10.0206 50.8498 9.40065 47.0298C8.78065 43.2098 9.86064 39.8198 11.8006 39.4498C13.7406 39.0798 15.8006 41.8798 16.4206 45.7098Z" fill="#F4B88E"/>
<path d="M14.0909 44.6702C14.0909 44.6702 14.0909 44.4602 13.9809 44.1102C13.8753 43.6376 13.7176 43.1781 13.5109 42.7402C13.2709 42.2202 12.8809 41.6402 12.3909 41.6102C12.2622 41.6022 12.1331 41.6192 12.0109 41.6602C11.949 41.6901 11.8889 41.7234 11.8309 41.7602C11.8309 41.7602 11.7409 41.7602 11.6909 41.8702C11.4696 42.1049 11.3083 42.3897 11.2209 42.7002C11.118 43.0559 11.051 43.4211 11.0209 43.7902C10.986 44.1527 10.986 44.5177 11.0209 44.8802C11.0809 45.2702 11.1009 45.6602 11.1709 45.9902C11.2409 46.3202 11.3009 46.6502 11.3509 46.9902C11.4009 47.3302 11.4909 47.5702 11.5509 47.8102C11.6109 48.0502 11.6709 48.2702 11.7209 48.4402C11.8209 48.7902 11.8709 49.0002 11.8709 49.0002C11.8709 49.0002 11.7709 48.8202 11.6109 48.5002C11.5079 48.3117 11.4144 48.1181 11.3309 47.9202C11.2309 47.6802 11.1209 47.4202 11.0109 47.1302C10.9009 46.8402 10.8109 46.4902 10.7009 46.1302C10.5909 45.7702 10.5509 45.4102 10.4709 45.0202C10.416 44.5853 10.416 44.1451 10.4709 43.7102C10.5048 43.2721 10.5887 42.8393 10.7209 42.4202C10.8494 41.9955 11.0833 41.6102 11.4009 41.3002C11.4829 41.2234 11.5735 41.1562 11.6709 41.1002C11.7575 41.0558 11.8479 41.019 11.9409 40.9902C12.1326 40.9551 12.3291 40.9551 12.5209 40.9902C12.7246 41.0307 12.9181 41.1118 13.0899 41.2286C13.2617 41.3454 13.4083 41.4956 13.5209 41.6702C13.72 41.9625 13.875 42.2826 13.9809 42.6202C14.1343 43.12 14.2217 43.6377 14.2409 44.1602C14.1997 44.3327 14.1496 44.5029 14.0909 44.6702Z" fill="#F2A57F"/>
<path d="M14.0902 44.6699C14.0902 44.6699 14.2601 44.2599 12.9901 44.1699C12.9901 44.1699 11.5601 44.4299 12.4001 46.3299C12.5881 46.7403 12.7322 47.1693 12.8301 47.6099C12.9601 48.2499 12.7301 49.1199 13.0701 49.6799C13.5101 50.4099 14.6301 49.9999 14.7001 49.1599C14.5843 48.3654 14.2715 47.6125 13.7901 46.9699C13.5419 46.619 13.435 46.1875 13.4906 45.7613C13.5462 45.3351 13.7602 44.9454 14.0902 44.6699Z" fill="#F2A57F"/>
<path d="M14.7003 49.0801L14.8003 49.1801C14.8801 49.2906 14.9441 49.4118 14.9903 49.5401C15.0171 49.6284 15.0372 49.7187 15.0503 49.8101C15.0656 49.9162 15.0656 50.0239 15.0503 50.1301C15.0503 50.2401 15.0503 50.3501 15.0503 50.4701C15.0503 50.5901 14.9803 50.6801 14.9403 50.7901C14.8997 50.8895 14.8529 50.9864 14.8003 51.0801C14.7403 51.1601 14.6703 51.2301 14.6103 51.3001C14.511 51.4279 14.3749 51.5221 14.2203 51.5701C14.0819 51.6341 13.9326 51.6715 13.7803 51.6801C13.837 51.5226 13.9038 51.3689 13.9803 51.2201L14.0903 51.0401C14.1142 50.9676 14.1443 50.8974 14.1803 50.8301C14.2069 50.7584 14.244 50.691 14.2903 50.6301C14.3229 50.559 14.3497 50.4855 14.3703 50.4101C14.4351 50.2793 14.4854 50.1418 14.5203 50.0001C14.5203 49.9301 14.5203 49.8501 14.5803 49.7901C14.5841 49.7201 14.5841 49.65 14.5803 49.5801C14.631 49.4162 14.671 49.2491 14.7003 49.0801Z" fill="#F2A57F"/>
<path d="M53.9001 14.6698C53.9001 14.6698 47.3101 7.4498 34.3301 7.0498C21.3301 7.7298 14.8001 15.1998 14.8001 15.2098C11.2801 26.5698 13.5301 39.8898 15.0301 51.4198C16.1401 59.9398 21.8701 65.8898 29.0801 70.0398C30.8929 71.1085 32.9304 71.7386 35.0301 71.8798C37.1305 71.6901 39.156 71.0046 40.9401 69.8798C47.9401 65.1298 53.3201 59.2598 54.6501 50.5998C55.7459 42.8948 56.1342 35.1056 55.8101 27.3298C55.7696 23.0412 55.1266 18.7795 53.9001 14.6698Z" fill="#F4B88E"/>
<path d="M28.7005 37.9298C25.578 37.0435 22.2446 37.2698 19.2705 38.5698C20.2105 33.4498 29.0705 35.5698 29.0705 35.5698C29.0705 35.5698 29.6605 35.7098 29.5905 36.6198C29.5905 36.5998 29.3605 38.1798 28.7005 37.9298Z" fill="#3F232A"/>
<path d="M39.5003 37.9298C42.8381 37.0514 46.3705 37.2759 49.5703 38.5698C48.5703 33.4498 39.1303 35.5698 39.1303 35.5698C39.1303 35.5698 38.5403 35.7098 38.6103 36.6198C38.6103 36.5998 38.8403 38.1798 39.5003 37.9298Z" fill="#3F232A"/>
<path d="M22.8106 42.6902C22.8106 44.1702 23.6506 45.3702 24.6706 45.3602C25.6906 45.3502 26.5106 44.1502 26.5006 42.6702C26.4906 41.1902 25.6606 39.9902 24.6406 39.9902C23.6206 39.9902 22.8006 41.2002 22.8106 42.6902Z" fill="#2F1807"/>
<path d="M23.9201 41.7901C23.9214 41.8947 23.9019 41.9985 23.8628 42.0955C23.8237 42.1925 23.7658 42.2807 23.6923 42.3552C23.6188 42.4296 23.5312 42.4887 23.4347 42.529C23.3382 42.5693 23.2347 42.5901 23.1301 42.5901C23.025 42.5901 22.921 42.5694 22.8239 42.5292C22.7269 42.489 22.6387 42.43 22.5644 42.3557C22.4901 42.2815 22.4312 42.1933 22.391 42.0962C22.3508 41.9992 22.3301 41.8951 22.3301 41.7901C22.3301 41.6855 22.3508 41.5819 22.3912 41.4854C22.4315 41.3889 22.4906 41.3014 22.565 41.2279C22.6394 41.1544 22.7277 41.0964 22.8247 41.0573C22.9217 41.0182 23.0255 40.9987 23.1301 41.0001C23.2338 41.0001 23.3366 41.0205 23.4324 41.0602C23.5283 41.0999 23.6153 41.1581 23.6887 41.2314C23.762 41.3048 23.8202 41.3919 23.8599 41.4878C23.8996 41.5836 23.9201 41.6863 23.9201 41.7901Z" fill="white"/>
<path d="M46.0209 42.6902C46.0209 44.1702 45.1809 45.3702 44.1609 45.3602C43.1409 45.3502 42.3309 44.1502 42.3409 42.6702C42.3509 41.1902 43.1809 39.9902 44.1909 39.9902C45.2009 39.9902 46.0209 41.2002 46.0209 42.6902Z" fill="#2F1807"/>
<path d="M44.9102 41.7901C44.9102 42.0022 44.9944 42.2057 45.1445 42.3557C45.2945 42.5058 45.498 42.5901 45.7102 42.5901C45.8148 42.5901 45.9183 42.5693 46.0148 42.529C46.1113 42.4887 46.1988 42.4296 46.2723 42.3552C46.3458 42.2807 46.4038 42.1925 46.4429 42.0955C46.482 41.9985 46.5015 41.8947 46.5002 41.7901C46.5002 41.6863 46.4797 41.5836 46.44 41.4878C46.4003 41.3919 46.3421 41.3048 46.2688 41.2314C46.1954 41.1581 46.1083 41.0999 46.0125 41.0602C45.9166 41.0205 45.8139 41.0001 45.7102 41.0001C45.6056 40.9987 45.5018 41.0182 45.4048 41.0573C45.3078 41.0964 45.2195 41.1544 45.1451 41.2279C45.0706 41.3014 45.0116 41.3889 44.9712 41.4854C44.9309 41.5819 44.9101 41.6855 44.9102 41.7901Z" fill="white"/>
<path d="M29.8008 59.4199C29.8008 60.8499 31.8008 62.0199 34.3508 62.0199C36.9008 62.0199 38.8908 60.8499 38.9008 59.4199H29.8008Z" fill="white"/>
<path d="M38.6607 59.7898C39.1813 59.6905 39.6816 59.5046 40.1407 59.2398C40.1407 59.2398 39.4007 58.9298 38.3607 58.6198C35.6807 57.4798 35.8607 58.9498 34.4307 58.9498C33.7207 58.9498 33.0007 58.1898 32.3307 58.2798C31.7171 58.3522 31.1091 58.4658 30.5107 58.6198C29.8945 58.7651 29.2948 58.9729 28.7207 59.2398C29.2234 59.5355 29.7704 59.7482 30.3407 59.8698C31.3129 59.8392 32.286 59.886 33.2507 60.0098C33.9053 60.1753 34.5886 60.1924 35.2507 60.0598C36.3623 59.8337 37.4973 59.743 38.6307 59.7898" fill="#F37D7F"/>
<path d="M39.2404 59.2702C38.5629 59.9568 37.7496 60.4946 36.8525 60.8493C35.9555 61.204 34.9943 61.3678 34.0304 61.3302C32.3494 61.228 30.7698 60.4918 29.6104 59.2702H28.6904L28.7804 59.4902C29.0054 59.9564 29.2661 60.4044 29.5604 60.8302C29.7204 61.0502 29.8904 61.2902 30.0704 61.5202C30.2718 61.7516 30.489 61.9688 30.7204 62.1702L31.0704 62.4902L31.4804 62.7602C31.7508 62.9754 32.0549 63.1443 32.3804 63.2602C32.7049 63.3955 33.0392 63.5059 33.3804 63.5902L33.8304 63.6502H34.0504H34.1704H34.3704L35.4304 63.5102C35.7717 63.4259 36.106 63.3156 36.4304 63.1802C36.7452 63.0588 37.0414 62.8938 37.3104 62.6902L37.7104 62.4202L38.0604 62.1002C38.2894 61.8962 38.5064 61.6791 38.7104 61.4502L39.2304 60.7602C39.5239 60.3322 39.7814 59.8806 40.0004 59.4102C40.0346 59.3421 40.0647 59.2719 40.0904 59.2002L39.2404 59.2702Z" fill="#F37D7F"/>
<path d="M34.3505 62.7C38.0805 62.45 38.7705 60.29 38.7705 60.29C38.2228 60.9111 37.5387 61.3968 36.7718 61.7091C36.005 62.0214 35.1762 62.1518 34.3505 62.09C34.2752 62.1 34.2069 62.1391 34.1601 62.199C34.1134 62.2588 34.0919 62.3346 34.1005 62.41C34.1005 62.41 34.1605 62.71 34.3505 62.7Z" fill="white"/>
<path d="M63.0201 34.5299C63.0201 34.5299 64.1601 5.39989 41.4801 1.25989C41.4801 1.25989 25.4001 -1.31011 19.3701 8.66989L25.3701 23.9399C25.3701 23.9399 25.2601 29.3999 50.4701 34.7799C50.4701 34.7799 55.6301 36.0899 55.9501 45.7199C56.8 41.2273 59.3278 37.2266 63.0201 34.5299Z" fill="#3F232A"/>
<path d="M31.8008 52.7903H31.9008L32.1608 52.7303L32.9808 52.5703C33.3008 52.5703 33.6308 52.4803 33.9808 52.4703C34.3308 52.4603 34.6408 52.4703 34.9808 52.4703L35.9108 52.5303L36.3808 52.5903L36.8408 52.6503C36.9908 52.6503 37.1508 52.7103 37.2908 52.7203L37.6608 52.7703L37.9308 52.8203H38.0308V52.9203C38.0171 53.0104 37.9902 53.0981 37.9508 53.1803C37.8399 53.478 37.6698 53.7501 37.4508 53.9803C37.3167 54.1371 37.162 54.2751 36.9908 54.3903C36.8046 54.5237 36.6031 54.6344 36.3908 54.7203C36.1675 54.8202 35.9322 54.8908 35.6908 54.9303C35.444 54.98 35.1923 55.0001 34.9408 54.9903C34.6946 54.9822 34.45 54.9487 34.2108 54.8903C33.9806 54.8396 33.7562 54.7659 33.5408 54.6703C33.1689 54.489 32.8307 54.2455 32.5408 53.9503C32.3216 53.7278 32.1453 53.4667 32.0208 53.1803C31.9755 53.0987 31.9418 53.0112 31.9208 52.9203L31.8008 52.7903Z" fill="#F5A586"/>
<path d="M56.4105 104.32C56.3505 98.3202 56.7405 92.3202 61.5905 88.6802L43.4805 81.6102L34.1005 90.2502L25.7305 81.4502L7.02051 88.7902C10.5705 90.7902 11.6005 95.9302 11.8805 99.6602C12.0042 101.22 12.0409 102.786 11.9905 104.35L56.4105 104.32Z" fill="#6A54A1"/>
<path d="M28.6904 23C28.6904 23 14.6904 26 14.6904 45.79C14.6904 45.79 14.0904 39.42 10.3504 40.28C10.3504 40.28 -0.139595 13.96 24.4204 6.54004L28.6904 23Z" fill="#3F232A"/>
<path d="M22.8105 18.7603L24.0506 25.8802L25.7906 24.9702L22.8105 18.7603Z" fill="#F4B88E"/>
</svg>
