<svg width="20" height="20" viewBox="0 0 20 20" fill="none" xmlns="http://www.w3.org/2000/svg">
<path d="M17.0711 2.92873C13.1749 -0.967425 6.82509 -0.967425 2.92893 2.92873C-0.967226 6.82489 -0.967226 13.1747 2.92893 17.0709C6.82509 20.967 13.1749 20.967 17.0711 17.0709C20.9672 13.1747 20.9672 6.82489 17.0711 2.92873ZM12.2981 13.3586L10 11.0605L7.7019 13.3586C7.41199 13.6485 6.93116 13.6485 6.64124 13.3586C6.35133 13.0686 6.35133 12.5878 6.64124 12.2979L8.93934 9.9998L6.64124 7.7017C6.35133 7.41179 6.35133 6.93096 6.64124 6.64104C6.93116 6.35113 7.41199 6.35113 7.7019 6.64104L10 8.93914L12.2981 6.64104C12.588 6.35113 13.0688 6.35113 13.3588 6.64104C13.6487 6.93096 13.6487 7.41179 13.3588 7.7017L11.0607 9.9998L13.3588 12.2979C13.6487 12.5878 13.6487 13.0686 13.3588 13.3586C13.0688 13.6485 12.588 13.6485 12.2981 13.3586Z" fill="#FF1414"/>
</svg>
