<svg width="56" height="56" viewBox="0 0 56 56" fill="none" xmlns="http://www.w3.org/2000/svg">
<path d="M20.2536 29.6808H24.3136V39.1308C24.3136 40.5308 26.0403 41.1842 26.9736 40.1342L36.9136 28.8408C37.777 27.8608 37.077 26.3208 35.7703 26.3208H31.7103V16.8708C31.7103 15.4708 29.9836 14.8175 29.0503 15.8675L19.1103 27.1608C18.247 28.1408 18.947 29.6808 20.2536 29.6808Z" stroke="#EB2027" stroke-width="2.5" stroke-miterlimit="10" stroke-linecap="round" stroke-linejoin="round"/>
<path d="M27.93 51.3327C40.8167 51.3327 51.2633 40.886 51.2633 27.9994C51.2633 15.1127 40.8167 4.66602 27.93 4.66602C15.0434 4.66602 4.59668 15.1127 4.59668 27.9994C4.59668 40.886 15.0434 51.3327 27.93 51.3327Z" stroke="#EB2027" stroke-width="2.5" stroke-miterlimit="10" stroke-linecap="round" stroke-linejoin="round"/>
</svg>
