<svg width="40" height="40" viewBox="0 0 40 40" fill="none" xmlns="http://www.w3.org/2000/svg">
<path d="M20.0003 20.0007C24.6027 20.0007 28.3337 16.2697 28.3337 11.6673C28.3337 7.06494 24.6027 3.33398 20.0003 3.33398C15.398 3.33398 11.667 7.06494 11.667 11.6673C11.667 16.2697 15.398 20.0007 20.0003 20.0007Z" stroke="#FD7E14" stroke-width="2" stroke-linecap="round" stroke-linejoin="round"/>
<path d="M5.68359 36.6667C5.68359 30.2167 12.1003 25 20.0003 25C21.6003 25 23.1503 25.2167 24.6003 25.6167" stroke="#FD7E14" stroke-width="2" stroke-linecap="round" stroke-linejoin="round"/>
<path d="M36.6663 30.0007C36.6663 31.2507 36.3164 32.434 35.6997 33.434C35.3497 34.034 34.8997 34.5673 34.383 35.0007C33.2164 36.0507 31.683 36.6673 29.9997 36.6673C27.5663 36.6673 25.4497 35.3673 24.2997 33.434C23.683 32.434 23.333 31.2507 23.333 30.0007C23.333 27.9007 24.2997 26.0173 25.833 24.8007C26.983 23.884 28.433 23.334 29.9997 23.334C33.683 23.334 36.6663 26.3173 36.6663 30.0007Z" stroke="#FD7E14" stroke-width="2" stroke-miterlimit="10" stroke-linecap="round" stroke-linejoin="round"/>
<path d="M27.3994 30.0005L29.0494 31.6505L32.5994 28.3672" stroke="#FD7E14" stroke-width="2" stroke-linecap="round" stroke-linejoin="round"/>
</svg>
